<svg width="50" height="49" viewBox="0 0 50 49" fill="none" xmlns="http://www.w3.org/2000/svg">
<path d="M46.8344 21.2737L27.4159 27.8547C25.5471 28.5045 24.4909 28.5858 22.4601 27.936L3.36675 21.1109C1.8231 20.136 1.25437 19.3236 3.44804 18.2685L22.7039 11.2821C24.3286 10.6323 24.5727 10.7133 26.5337 11.2935L47.078 18.7581C48.459 19.6488 48.2155 20.705 46.8344 21.2737Z" stroke="currentColor" stroke-width="2.5" stroke-miterlimit="10" stroke-linecap="round"/>
<path d="M12.6779 38.3356C11.8039 38.3331 10.9664 37.9848 10.3484 37.3668C9.73033 36.7488 9.38199 35.9114 9.37939 35.0374V27.5298" stroke="currentColor" stroke-width="2.5" stroke-miterlimit="10" stroke-linecap="round"/>
<path d="M40.0904 27.5298V35.0371C40.0879 35.9111 39.7395 36.7487 39.1215 37.3667C38.5035 37.9847 37.6659 38.3331 36.7919 38.3356H26.1157" stroke="currentColor" stroke-width="2.5" stroke-miterlimit="10" stroke-linecap="round"/>
<path d="M29.2846 21.8397L18.3975 25.9837V31.996" stroke="currentColor" stroke-width="2" stroke-miterlimit="10" stroke-linecap="round"/>
<path d="M15.8789 36.8735H21.1599" stroke="currentColor" stroke-width="2" stroke-miterlimit="10" stroke-linecap="round"/>
<path d="M18.3975 31.9973L21.1599 36.8721" stroke="currentColor" stroke-width="2" stroke-miterlimit="10" stroke-linecap="round"/>
<path d="M15.8789 36.8721L18.3975 31.9973" stroke="currentColor" stroke-width="2" stroke-miterlimit="10" stroke-linecap="round"/>
</svg>
