<svg width="33" height="33" viewBox="0 0 33 33" fill="none" xmlns="http://www.w3.org/2000/svg">
<g clip-path="url(#clip0_2584_186586)">
<path d="M21.5251 4.375L28.6248 11.4746V21.5254L21.5251 28.625H11.4744L4.37476 21.5254V11.4746L11.4744 4.375H21.5251ZM26.3748 12.4092L20.5906 6.625H12.4089L6.62476 12.4092V20.5908L12.4089 26.375H20.5906L26.3748 20.5908V12.4092Z" fill="currentColor" stroke="#FCF3E9" stroke-width="0.5"/>
<path d="M16.4995 23.375C17.2589 23.375 17.8745 22.7594 17.8745 22C17.8745 21.2406 17.2589 20.625 16.4995 20.625C15.7401 20.625 15.1245 21.2406 15.1245 22C15.1245 22.7594 15.7401 23.375 16.4995 23.375Z" fill="currentColor"/>
<path d="M15.1245 9.62488H17.8745V19.2499H15.1245V9.62488Z" fill="currentColor"/>
</g>
<defs>
<clipPath id="clip0_2584_186586">
<rect width="33" height="33" fill="white"/>
</clipPath>
</defs>
</svg>
