<svg width="28" height="28" viewBox="0 0 28 28" fill="none" xmlns="http://www.w3.org/2000/svg">
<path d="M3.2813 27.7794C2.42319 27.7689 1.60194 27.3719 0.990138 26.6717C0.378334 25.9715 0.023612 25.0226 0.000488281 24.0244V20.2069C0.00570314 19.9599 0.0923632 19.7246 0.242516 19.5499C0.392669 19.3752 0.594815 19.2744 0.807099 19.2683C1.01938 19.2744 1.22153 19.3752 1.37168 19.5499C1.52183 19.7246 1.60849 19.9599 1.61371 20.2069V24.0244C1.61746 24.2804 1.66536 24.5329 1.75456 24.7669C1.84376 25.0009 1.97245 25.2117 2.13299 25.3868C2.29353 25.5619 2.48266 25.6976 2.68915 25.7861C2.89564 25.8745 3.1153 25.9137 3.33507 25.9015H24.0973C24.3212 25.9122 24.5447 25.8698 24.7542 25.7768C24.9636 25.6839 25.1546 25.5424 25.3156 25.3609C25.4766 25.1794 25.6042 24.9618 25.6907 24.7211C25.7772 24.4805 25.8207 24.2219 25.8186 23.9611V6.37632C25.8148 6.12033 25.767 5.86784 25.6778 5.6338C25.5886 5.39977 25.4599 5.18896 25.2993 5.01389C25.1388 4.83882 24.9497 4.70305 24.7432 4.61464C24.5367 4.52623 24.317 4.48698 24.0973 4.49921H22.8064C22.5942 4.49315 22.392 4.39231 22.2418 4.2176C22.0917 4.04288 22.005 3.80767 21.9998 3.56066C22.005 3.31365 22.0917 3.07843 22.2418 2.90372C22.392 2.729 22.5942 2.62817 22.8064 2.6221H24.0435C24.4751 2.61053 24.9044 2.69883 25.3064 2.88188C25.7085 3.06493 26.0753 3.33909 26.3855 3.68843C26.6957 4.03777 26.9432 4.45534 27.1136 4.91689C27.284 5.37844 27.3739 5.87478 27.3781 6.37709V24.0251C27.3636 25.0266 27.0117 25.9814 26.398 26.6838C25.7843 27.3861 24.9581 27.7799 24.0973 27.7801H3.28333L3.2813 27.7794Z" fill="currentColor"/>
<path d="M18.1247 4.49821H9.08884C8.87655 4.49214 8.67441 4.3913 8.52425 4.21659C8.3741 4.04187 8.28744 3.80666 8.28223 3.55965C8.28744 3.31264 8.3741 3.07743 8.52425 2.90271C8.67441 2.728 8.87655 2.62716 9.08884 2.62109H18.1247C18.337 2.62716 18.5391 2.728 18.6893 2.90271C18.8395 3.07743 18.9261 3.31264 18.9313 3.55965C18.9261 3.80666 18.8395 4.04187 18.6893 4.21659C18.5391 4.3913 18.337 4.49214 18.1247 4.49821Z" fill="currentColor"/>
<path d="M0.806611 15.5773C0.594327 15.5713 0.392181 15.4704 0.242028 15.2957C0.0918749 15.121 0.00521486 14.8858 0 14.6388V6.50516C0.00320905 5.99962 0.0920463 5.49978 0.261421 5.03423C0.430795 4.56868 0.677393 4.14655 0.987099 3.79198C1.29681 3.43742 1.66354 3.15739 2.06635 2.9679C2.46915 2.7784 2.90012 2.68317 3.33458 2.68765H4.46221C4.67449 2.69372 4.87664 2.79455 5.02679 2.96926C5.17695 3.14398 5.26361 3.37919 5.26882 3.6262C5.26361 3.87321 5.17695 4.10843 5.02679 4.28315C4.87664 4.45786 4.67449 4.55869 4.46221 4.56476H3.38632C3.15943 4.56123 2.93422 4.61062 2.72401 4.71003C2.51379 4.80944 2.32283 4.95684 2.16238 5.14354C2.00193 5.33023 1.87525 5.55244 1.78982 5.79704C1.70439 6.04163 1.66193 6.30367 1.66496 6.56767V14.7036C1.62729 14.9404 1.52207 15.1555 1.36629 15.314C1.21052 15.4726 1.01332 15.5654 0.806611 15.5773Z" fill="currentColor"/>
<path d="M26.5158 11.3224H0.807099C0.594815 11.3163 0.392669 11.2155 0.242516 11.0408C0.0923632 10.8661 0.00570314 10.6309 0.000488281 10.3839C0.00570314 10.1368 0.0923632 9.90163 0.242516 9.72692C0.392669 9.5522 0.594815 9.45138 0.807099 9.44531H26.5158C26.728 9.45138 26.9302 9.5522 27.0803 9.72692C27.2305 9.90163 27.3172 10.1368 27.3224 10.3839C27.3172 10.6309 27.2305 10.8661 27.0803 11.0408C26.9302 11.2155 26.728 11.3163 26.5158 11.3224Z" fill="currentColor"/>
<path d="M8.55207 15.9631H4.94821C4.73593 15.957 4.53378 15.8561 4.38363 15.6814C4.23348 15.5067 4.14682 15.2715 4.1416 15.0245C4.14682 14.7775 4.23348 14.5423 4.38363 14.3676C4.53378 14.1928 4.73593 14.092 4.94821 14.0859H8.55207C8.76435 14.092 8.9665 14.1928 9.11665 14.3676C9.2668 14.5423 9.35346 14.7775 9.35868 15.0245C9.36066 15.1484 9.34114 15.2715 9.30131 15.3864C9.26148 15.5013 9.20215 15.6057 9.12685 15.6933C9.05156 15.7809 8.96184 15.8499 8.86309 15.8963C8.76433 15.9426 8.65854 15.9654 8.55207 15.9631Z" fill="currentColor"/>
<path d="M15.6515 15.9631H12.0483C11.836 15.957 11.6339 15.8561 11.4837 15.6814C11.3336 15.5067 11.2469 15.2715 11.2417 15.0245C11.2469 14.7775 11.3336 14.5423 11.4837 14.3676C11.6339 14.1928 11.836 14.092 12.0483 14.0859H15.6515C15.8638 14.092 16.0659 14.1928 16.2161 14.3676C16.3663 14.5423 16.4529 14.7775 16.4581 15.0245C16.4529 15.2715 16.3663 15.5067 16.2161 15.6814C16.0659 15.8561 15.8638 15.957 15.6515 15.9631Z" fill="currentColor"/>
<path d="M22.7487 15.9631H19.1455C18.9332 15.957 18.731 15.8561 18.5809 15.6814C18.4307 15.5067 18.3441 15.2715 18.3389 15.0245C18.3441 14.7775 18.4307 14.5423 18.5809 14.3676C18.731 14.1928 18.9332 14.092 19.1455 14.0859H22.7487C22.961 14.092 23.1631 14.1928 23.3133 14.3676C23.4634 14.5423 23.5501 14.7775 23.5553 15.0245C23.5501 15.2715 23.4634 15.5067 23.3133 15.6814C23.1631 15.8561 22.961 15.957 22.7487 15.9631Z" fill="currentColor"/>
<path d="M8.55207 22.3459H4.94821C4.73593 22.3398 4.53378 22.239 4.38363 22.0642C4.23348 21.8895 4.14682 21.6543 4.1416 21.4073C4.14682 21.1603 4.23348 20.9251 4.38363 20.7504C4.53378 20.5757 4.73593 20.4748 4.94821 20.4688H8.55207C8.76435 20.4748 8.9665 20.5757 9.11665 20.7504C9.2668 20.9251 9.35346 21.1603 9.35868 21.4073C9.36066 21.5312 9.34114 21.6543 9.30131 21.7692C9.26148 21.8841 9.20215 21.9885 9.12685 22.0761C9.05156 22.1637 8.96184 22.2328 8.86309 22.2791C8.76433 22.3255 8.65854 22.3482 8.55207 22.3459Z" fill="currentColor"/>
<path d="M15.6515 22.3459H12.0483C11.836 22.3398 11.6339 22.239 11.4837 22.0642C11.3336 21.8895 11.2469 21.6543 11.2417 21.4073C11.2469 21.1603 11.3336 20.9251 11.4837 20.7504C11.6339 20.5757 11.836 20.4748 12.0483 20.4688H15.6515C15.8638 20.4748 16.0659 20.5757 16.2161 20.7504C16.3663 20.9251 16.4529 21.1603 16.4581 21.4073C16.4529 21.6543 16.3663 21.8895 16.2161 22.0642C16.0659 22.239 15.8638 22.3398 15.6515 22.3459Z" fill="currentColor"/>
<path d="M22.7487 22.3459H19.1455C18.9332 22.3398 18.731 22.239 18.5809 22.0642C18.4307 21.8895 18.3441 21.6543 18.3389 21.4073C18.3441 21.1603 18.4307 20.9251 18.5809 20.7504C18.731 20.5757 18.9332 20.4748 19.1455 20.4688H22.7487C22.961 20.4748 23.1631 20.5757 23.3133 20.7504C23.4634 20.9251 23.5501 21.1603 23.5553 21.4073C23.5501 21.6543 23.4634 21.8895 23.3133 22.0642C23.1631 22.239 22.961 22.3398 22.7487 22.3459Z" fill="currentColor"/>
<path d="M6.72556 7.32164C6.51327 7.31557 6.31113 7.21475 6.16097 7.04003C6.01082 6.86532 5.92416 6.63011 5.91895 6.3831V0.938557C5.92416 0.691547 6.01082 0.456328 6.16097 0.281613C6.31113 0.106898 6.51327 0.00606791 6.72556 0C6.93784 0.00606791 7.13999 0.106898 7.29014 0.281613C7.44029 0.456328 7.52695 0.691547 7.53217 0.938557V6.3831C7.52695 6.63011 7.44029 6.86532 7.29014 7.04003C7.13999 7.21475 6.93784 7.31557 6.72556 7.32164Z" fill="currentColor"/>
<path d="M20.4917 7.32164C20.2794 7.31557 20.0772 7.21475 19.927 7.04003C19.7769 6.86532 19.6903 6.63011 19.6851 6.3831V0.938557C19.6903 0.691547 19.7769 0.456328 19.927 0.281613C20.0772 0.106898 20.2794 0.00606791 20.4917 0C20.704 0.00606791 20.9061 0.106898 21.0563 0.281613C21.2064 0.456328 21.293 0.691547 21.2982 0.938557V6.3831C21.293 6.63011 21.2064 6.86532 21.0563 7.04003C20.9061 7.21475 20.704 7.31557 20.4917 7.32164Z" fill="currentColor"/>
</svg>
