<svg width="27" height="27" viewBox="0 0 27 27" fill="none" xmlns="http://www.w3.org/2000/svg">
<path d="M25.75 13.3804C25.7488 16.112 24.8438 18.7666 23.1761 20.9301C21.5084 23.0936 19.1717 24.6444 16.5304 25.341C13.889 26.0375 11.0914 25.8405 8.57376 24.7806C6.05609 23.7208 3.95979 21.8576 2.61177 19.4818C1.26375 17.1059 0.739732 14.3508 1.12141 11.646C1.50309 8.94113 2.76903 6.43849 4.72183 4.52839C6.67464 2.61828 9.2046 1.40798 11.9172 1.08619C14.6299 0.764387 17.3727 1.34917 19.7182 2.74936" stroke="currentColor" stroke-width="2" stroke-miterlimit="10" stroke-linecap="round"/>
<path d="M8.00049 12.3488L13.2595 17.7282" stroke="currentColor" stroke-width="2" stroke-miterlimit="10" stroke-linecap="round"/>
<path d="M25.7496 4.53699L13.2593 17.7282" stroke="currentColor" stroke-width="2" stroke-miterlimit="10" stroke-linecap="round"/>
</svg>
 