<svg width="40" height="40" viewBox="0 0 40 40" fill="none" xmlns="http://www.w3.org/2000/svg">
<g filter="url(#filter0_d_1717_65896)">
<rect x="4" y="3" width="32" height="32" rx="4" fill="white" shape-rendering="crispEdges"/>
<rect x="4.25" y="3.25" width="31.5" height="31.5" rx="3.75" stroke="#F1F4F9" stroke-width="0.5" shape-rendering="crispEdges"/>
<mask id="mask0_1717_65896" style="mask-type:alpha" maskUnits="userSpaceOnUse" x="8" y="7" width="24" height="24">
<rect x="8" y="7" width="24" height="24" fill="#D9D9D9"/>
</mask>
<g mask="url(#mask0_1717_65896)">
<path d="M15 28C14.45 28 13.9792 27.8042 13.5875 27.4125C13.1958 27.0208 13 26.55 13 26V13H12V11H17V10H23V11H28V13H27V26C27 26.55 26.8042 27.0208 26.4125 27.4125C26.0208 27.8042 25.55 28 25 28H15ZM25 13H15V26H25V13ZM17 24H19V15H17V24ZM21 24H23V15H21V24Z" fill="#D53425"/>
</g>
</g>
<defs>
<filter id="filter0_d_1717_65896" x="0" y="0" width="40" height="40" filterUnits="userSpaceOnUse" color-interpolation-filters="sRGB">
<feFlood flood-opacity="0" result="BackgroundImageFix"/>
<feColorMatrix in="SourceAlpha" type="matrix" values="0 0 0 0 0 0 0 0 0 0 0 0 0 0 0 0 0 0 127 0" result="hardAlpha"/>
<feOffset dy="1"/>
<feGaussianBlur stdDeviation="2"/>
<feComposite in2="hardAlpha" operator="out"/>
<feColorMatrix type="matrix" values="0 0 0 0 0 0 0 0 0 0 0 0 0 0 0 0 0 0 0.1 0"/>
<feBlend mode="normal" in2="BackgroundImageFix" result="effect1_dropShadow_1717_65896"/>
<feBlend mode="normal" in="SourceGraphic" in2="effect1_dropShadow_1717_65896" result="shape"/>
</filter>
</defs>
</svg>
