<svg width="48" height="49" viewBox="0 0 48 49" fill="none" xmlns="http://www.w3.org/2000/svg">
<path d="M38.7422 43.3496H46" stroke="currentColor" stroke-width="2.5" stroke-miterlimit="10" stroke-linecap="round"/>
<path d="M4 43.3496H5.50002" stroke="currentColor" stroke-width="2.5" stroke-miterlimit="10" stroke-linecap="round"/>
<path d="M13.1726 40.126C13.1726 40.126 10.3083 35.0235 14.4263 29.6528C17.3148 25.8852 21.3187 23.8348 23.7348 17.39C25.1452 13.6249 24.3332 6.34604 30.7169 6.17146C35.0734 6.05205 35.3714 10.9451 41.6968 10.8856" stroke="currentColor" stroke-width="2.5" stroke-miterlimit="10" stroke-linecap="round"/>
<path d="M32.0597 10.8549C32.2015 12.8629 32.8483 14.8027 33.9402 16.4939C35.7305 19.1793 37.0706 22.6955 33.7613 24.2814C31.6131 25.3107 29.2856 23.8338 29.2856 23.8338" stroke="currentColor" stroke-width="2" stroke-miterlimit="10" stroke-linecap="round"/>
<path d="M28.9714 11.4808C28.9714 11.4808 27.3153 15.3747 27.987 21.9089" stroke="currentColor" stroke-width="2" stroke-miterlimit="10" stroke-linecap="round"/>
<path d="M34.611 24.1487C34.611 24.1487 35.3717 29.3405 32.5073 31.22" stroke="currentColor" stroke-width="2.5" stroke-miterlimit="10" stroke-linecap="round"/>
<path d="M32.3726 39.3187V31.2178" stroke="currentColor" stroke-width="2.5" stroke-miterlimit="10" stroke-linecap="round"/>
<path d="M27.853 43.2579H34.4768C34.4768 43.2579 36.9318 43.2713 36.5357 41.0639C36.2222 39.3185 33.0445 38.87 33.0445 38.87" stroke="currentColor" stroke-width="2.5" stroke-miterlimit="10" stroke-linecap="round"/>
<path d="M18.1854 35.4703C18.1854 35.6048 14.6049 37.5292 15.0077 43.392" stroke="currentColor" stroke-width="2.5" stroke-miterlimit="10" stroke-linecap="round"/>
<path d="M15.2319 43.4827H26.1076" stroke="currentColor" stroke-width="2.5" stroke-miterlimit="10" stroke-linecap="round"/>
<path d="M10.7456 43.3664C10.248 43.3664 9.76151 43.2188 9.34774 42.9423C8.93396 42.6658 8.61146 42.2729 8.42102 41.8131C8.23058 41.3534 8.18075 40.8474 8.27784 40.3594C8.37492 39.8713 8.61456 39.423 8.96645 39.0711C9.31833 38.7192 9.76666 38.4795 10.2547 38.3825C10.7428 38.2854 11.2487 38.3352 11.7085 38.5256C12.1683 38.7161 12.5612 39.0386 12.8377 39.4524C13.1142 39.8661 13.2617 40.3526 13.2617 40.8502" stroke="currentColor" stroke-width="2.5" stroke-miterlimit="10" stroke-linecap="round"/>
<path d="M34.8328 12.4914C35.2927 12.4914 35.6655 12.1186 35.6655 11.6587C35.6655 11.1988 35.2927 10.8259 34.8328 10.8259C34.3728 10.8259 34 11.1988 34 11.6587C34 12.1186 34.3728 12.4914 34.8328 12.4914Z" fill="currentColor" stroke="currentColor" stroke-width="0.548726"/>
<path d="M35.1328 18.6426C35.1328 18.6426 35.371 15.7388 37.7586 15.7184C41.2793 15.6887 41.6971 13.8091 41.6971 10.8849" stroke="currentColor" stroke-width="2.5" stroke-miterlimit="10" stroke-linecap="round"/>
<path d="M26.2861 27.6854C26.2861 27.6854 28.0761 28.9391 27.9422 32.5193C27.7326 38.1097 27.8078 43.2608 27.8078 43.2608" stroke="currentColor" stroke-width="2" stroke-miterlimit="10" stroke-linecap="round"/>
</svg>
