<svg width="25" height="26" viewBox="0 0 25 26" fill="none" xmlns="http://www.w3.org/2000/svg">
<path d="M8.99946 11.6669C11.945 11.6669 14.3329 9.27902 14.3329 6.33344C14.3329 3.38786 11.945 1 8.99946 1C6.05388 1 3.66602 3.38786 3.66602 6.33344C3.66602 9.27902 6.05388 11.6669 8.99946 11.6669Z" stroke="currentColor" stroke-width="2" stroke-linecap="round" stroke-linejoin="round"/>
<path d="M1 25.0002V22.3334C1 20.9189 1.56191 19.5623 2.56213 18.5621C3.56234 17.5619 4.91892 17 6.33344 17H11.6669C13.0814 17 14.438 17.5619 15.4382 18.5621C16.4384 19.5623 17.0003 20.9189 17.0003 22.3334V25.0002" stroke="currentColor" stroke-width="2" stroke-linecap="round" stroke-linejoin="round"/>
<path d="M17 1C18.1472 1.29374 19.1641 1.96095 19.8902 2.89645C20.6164 3.83195 21.0105 4.98252 21.0105 6.16677C21.0105 7.35102 20.6164 8.50159 19.8902 9.43709C19.1641 10.3726 18.1472 11.0398 17 11.3335" stroke="currentColor" stroke-width="2" stroke-linecap="round" stroke-linejoin="round"/>
<path d="M23.6661 24.8275V22.1608C23.6593 20.9836 23.2633 19.8418 22.5398 18.9133C21.8162 17.9847 20.8058 17.3216 19.666 17.0273" stroke="currentColor" stroke-width="2" stroke-linecap="round" stroke-linejoin="round"/>
</svg>
