<svg width="49" height="49" viewBox="0 0 49 49" fill="none" xmlns="http://www.w3.org/2000/svg">
<path d="M22.7366 9.0814C23.2952 8.93113 23.8886 8.84766 24.4996 8.84766C28.1126 8.84766 31.045 11.6525 31.045 15.1085C31.045 18.5645 28.1126 21.3694 24.4996 21.3694C20.8865 21.3694 17.9541 18.5645 17.9541 15.1085C17.9541 13.9899 18.2683 12.9214 18.8094 12.0198" stroke="currentColor" stroke-width="2.72727" stroke-miterlimit="10" stroke-linecap="round"/>
<path d="M11.4095 31.8047H7.0459" stroke="currentColor" stroke-width="2.72727" stroke-miterlimit="10" stroke-linecap="round"/>
<path d="M2.68164 46.4134L7.04528 31.8047" stroke="currentColor" stroke-width="2.72727" stroke-miterlimit="10" stroke-linecap="round"/>
<path d="M13.5907 42.2393L2.68164 46.4132" stroke="currentColor" stroke-width="2.72727" stroke-miterlimit="10" stroke-linecap="round"/>
<path d="M24.4999 46.4132L13.5908 42.2393" stroke="currentColor" stroke-width="2.72727" stroke-miterlimit="10" stroke-linecap="round"/>
<path d="M33.2273 42.2393L24.5 46.4132" stroke="currentColor" stroke-width="2.72727" stroke-miterlimit="10" stroke-linecap="round"/>
<path d="M46.3184 46.4132L33.2275 42.2393" stroke="currentColor" stroke-width="2.72727" stroke-miterlimit="10" stroke-linecap="round"/>
<path d="M39.7725 31.8047L46.3179 46.4134" stroke="currentColor" stroke-width="2.72727" stroke-miterlimit="10" stroke-linecap="round"/>
<path d="M37.5908 31.8047H39.7726" stroke="currentColor" stroke-width="2.72727" stroke-miterlimit="10" stroke-linecap="round"/>
<path d="M33.2275 35.9785V40.1524" stroke="currentColor" stroke-width="2.72727" stroke-miterlimit="10" stroke-linecap="round"/>
<path d="M13.4145 35.9776L13.1283 40.6361" stroke="currentColor" stroke-width="2.72727" stroke-miterlimit="10" stroke-linecap="round"/>
<path d="M24.4956 35.9782C24.4956 35.9782 11.4092 27.0977 11.4092 15.6149C11.4092 8.42592 17.2744 2.58691 24.4956 2.58691C31.7168 2.58691 37.8597 8.42592 37.5819 15.6149C37.3042 22.8039 31.6841 29.5049 27.8938 33.0831" stroke="currentColor" stroke-width="2.72727" stroke-miterlimit="10" stroke-linecap="round"/>
</svg>
