<svg width="24" height="24" viewBox="0 0 24 24" fill="none" xmlns="http://www.w3.org/2000/svg">
<path d="M5.54027 9.40039C0.860273 9.73039 0.860273 16.5404 5.54027 16.8704H7.46032" stroke="currentColor" stroke-width="1.5" stroke-miterlimit="10" stroke-linecap="round" stroke-linejoin="round"/>
<path d="M5.59003 9.39993C2.38003 0.469926 15.92 -3.10007 17.47 6.27993C21.8 6.82993 23.55 12.5999 20.27 15.4699C19.27 16.3799 17.98 16.8799 16.63 16.8699H16.54" stroke="currentColor" stroke-width="1.5" stroke-miterlimit="10" stroke-linecap="round" stroke-linejoin="round"/>
<path d="M12.0498 21.2812C11.6398 21.2812 11.2998 21.0448 11.2998 20.7597V11.8028C11.2998 11.5177 11.6398 11.2812 12.0498 11.2812C12.4598 11.2812 12.7998 11.5177 12.7998 11.8028V20.7597C12.7998 21.0518 12.4598 21.2812 12.0498 21.2812Z" fill="currentColor"/>
<path d="M12.0975 22.7811C11.9075 22.7811 11.7175 22.7111 11.5675 22.5611L8.2175 19.2111C7.9275 18.9211 7.9275 18.4411 8.2175 18.1511C8.5075 17.8611 8.9875 17.8611 9.2775 18.1511L12.0975 20.9711L14.9175 18.1511C15.2075 17.8611 15.6875 17.8611 15.9775 18.1511C16.2675 18.4411 16.2675 18.9211 15.9775 19.2111L12.6275 22.5611C12.4775 22.7111 12.2875 22.7811 12.0975 22.7811Z" fill="currentColor"/>
</svg>
