<svg width="18" height="18" viewBox="0 0 18 18" fill="none" xmlns="http://www.w3.org/2000/svg">
<path d="M2 18C1.45 18 0.979167 17.8042 0.5875 17.4125C0.195833 17.0208 0 16.55 0 16V2C0 1.45 0.195833 0.979167 0.5875 0.5875C0.979167 0.195833 1.45 0 2 0H16C16.55 0 17.0208 0.195833 17.4125 0.5875C17.8042 0.979167 18 1.45 18 2V16C18 16.55 17.8042 17.0208 17.4125 17.4125C17.0208 17.8042 16.55 18 16 18H2ZM2 16H5.325V12.675H2V16ZM7.325 16H10.675V12.675H7.325V16ZM12.675 16H16V12.675H12.675V16ZM2 10.675H5.325V7.325H2V10.675ZM7.325 10.675H10.675V7.325H7.325V10.675ZM12.675 10.675H16V7.325H12.675V10.675ZM2 5.325H5.325V2H2V5.325ZM7.325 5.325H10.675V2H7.325V5.325ZM12.675 5.325H16V2H12.675V5.325Z" fill="currentColor"/>
</svg>
