<svg width="16" height="16" viewBox="0 0 16 16" fill="none" xmlns="http://www.w3.org/2000/svg">
<path d="M0.571289 13.3613H15.4287C15.5422 13.3614 15.7 13.4803 15.7002 13.7139V15.3467C15.7002 15.5805 15.5422 15.7001 15.4287 15.7002H0.571289C0.457754 15.7001 0.299805 15.5805 0.299805 15.3467V13.7139C0.299993 13.4803 0.457822 13.3614 0.571289 13.3613ZM0.571289 6.83105H15.4287C15.5422 6.83115 15.7002 6.94985 15.7002 7.18359V8.81641C15.7002 9.05015 15.5422 9.16885 15.4287 9.16895H0.571289C0.457767 9.16885 0.299841 9.05015 0.299805 8.81641V7.18359C0.29984 6.94985 0.457766 6.83115 0.571289 6.83105ZM0.571289 0.299805H15.4287C15.5422 0.299902 15.7002 0.419525 15.7002 0.65332V2.28613C15.7 2.51965 15.5422 2.63857 15.4287 2.63867H0.571289C0.457821 2.63857 0.299993 2.51965 0.299805 2.28613V0.65332C0.299805 0.419526 0.457753 0.299902 0.571289 0.299805Z" fill="currentColor" stroke="white" stroke-width="0.6"/>
</svg>
