<svg width="48" height="49" viewBox="0 0 48 49" fill="none" xmlns="http://www.w3.org/2000/svg">
<path d="M14.2393 8.30859C19.4656 8.08763 22.4073 11.0449 23.7744 13.001C25.1409 11.1084 28.0257 8.34566 33.2109 8.33301L33.7363 8.34082L33.7393 8.3418C34.0186 8.35603 34.2813 8.47879 34.4707 8.68457C34.6602 8.89065 34.7612 9.16353 34.752 9.44336C34.7427 9.72291 34.6243 9.98764 34.4219 10.1807C34.2198 10.3732 33.9499 10.4783 33.6709 10.4746V10.4756H33.2451C27.4721 10.4757 25.1734 14.5986 24.7881 15.4043C24.739 15.5517 24.6613 15.6878 24.5576 15.8037C24.4491 15.9249 24.316 16.0216 24.167 16.0869L24.166 16.0859C23.9972 16.1623 23.8098 16.189 23.627 16.1592V16.1572C23.5226 16.1493 23.4195 16.1276 23.3223 16.0889L23.3164 16.0869V16.0859C23.1648 16.017 23.0311 15.914 22.9268 15.7842C22.8275 15.6607 22.7581 15.5163 22.7217 15.3623C22.3221 14.4999 19.9322 9.96383 13.8877 10.4717H13.8857C12.2765 10.5906 10.7235 11.1144 9.37012 11.9932C8.01666 12.872 6.90689 14.0782 6.14355 15.5C5.1007 17.4513 3.80233 21.5857 6.90137 27.3428L7.16504 27.8096C9.94829 32.5739 14.6631 35.5949 18.874 38.2637L20.374 39.2246C21.7769 40.1351 23.0334 41.0021 24.0693 41.9141C25.4415 40.5339 27.3277 39.268 29.4277 37.8682C33.4103 35.205 37.9317 32.1967 40.5527 27.3428H40.5537C42.1199 24.4613 42.748 21.4664 42.3887 18.7207V18.7197C42.3529 18.4387 42.4283 18.1544 42.5996 17.9287C42.771 17.7031 43.0243 17.5536 43.3047 17.5127C43.4359 17.4849 43.5719 17.4851 43.7031 17.5137C43.8378 17.543 43.9644 17.6014 44.0742 17.6846C44.1842 17.768 44.2753 17.8751 44.3398 17.9971C44.4024 18.1153 44.4386 18.2455 44.4473 18.3789C44.877 21.5944 44.1697 25.0202 42.3652 28.3154C39.8234 32.976 35.7157 36.1004 32.0664 38.5889L30.5371 39.6191C28.1288 41.2458 26.0595 42.6068 24.8936 44.082L24.8848 44.0928L24.8838 44.0918L24.8809 44.0947C24.8785 44.1017 24.8786 44.1101 24.875 44.1172C24.8649 44.1374 24.853 44.1527 24.8457 44.1611C24.8386 44.1694 24.8298 44.1786 24.8232 44.1855L24.793 44.2168L24.7881 44.2227C24.7896 44.2212 24.7971 44.2099 24.7793 44.2373C24.7729 44.2471 24.7569 44.2711 24.7295 44.291C24.7131 44.3029 24.6951 44.3108 24.6768 44.3164C24.662 44.3254 24.652 44.3346 24.6455 44.3379C24.6332 44.3441 24.6371 44.3426 24.6406 44.3389L24.5967 44.3857H24.5742C24.5726 44.3868 24.5711 44.3886 24.5693 44.3896C24.5567 44.3976 24.5418 44.405 24.5244 44.4102C24.5069 44.4154 24.489 44.4179 24.4717 44.418C24.4777 44.418 24.4824 44.4175 24.4854 44.417C24.48 44.4186 24.4731 44.4215 24.4609 44.4258C24.4505 44.4295 24.4334 44.435 24.418 44.4395C24.41 44.4458 24.4014 44.4547 24.3896 44.4609C24.3636 44.4747 24.3368 44.4797 24.3174 44.4814C24.2469 44.5074 24.1719 44.5189 24.0967 44.5137L24.082 44.5127L24.0674 44.5088C24.0263 44.4975 23.9845 44.4891 23.9424 44.4824H23.8945C23.8355 44.4824 23.7909 44.4656 23.7637 44.4541C23.7582 44.4518 23.7517 44.4494 23.749 44.4482C23.7472 44.4475 23.7461 44.4467 23.7451 44.4463L23.7441 44.4453C23.7364 44.4441 23.7284 44.4447 23.7207 44.4424C23.7031 44.4371 23.6876 44.43 23.6748 44.4219C23.6731 44.4208 23.6715 44.4191 23.6699 44.418H23.6523L23.6094 44.377C23.6126 44.38 23.6174 44.382 23.5996 44.373C23.5878 44.3671 23.57 44.3557 23.5488 44.3398C23.5396 44.3358 23.53 44.3329 23.5225 44.3281C23.5211 44.3272 23.5199 44.3261 23.5186 44.3252H23.3984L23.4053 44.2295L23.3906 44.2139L23.3604 44.1816C22.1007 42.8528 20.0853 41.5799 17.7402 40.0771C13.4651 37.33 8.08588 33.9167 5.05859 28.3438C1.47664 21.7479 3.03526 16.8323 4.29883 14.4736H4.2998C5.22966 12.7454 6.5784 11.2784 8.22266 10.207C9.86704 9.13565 11.7542 8.49419 13.7109 8.3418L14.2393 8.30859ZM23.7461 44.4463C23.7473 44.4466 23.7488 44.4477 23.751 44.4482L23.7734 44.4502C23.764 44.4502 23.7547 44.4468 23.7451 44.4453L23.7461 44.4463Z" fill="currentColor" stroke="currentColor" stroke-width="0.3"/>
<path d="M37.9956 9.87671C37.0775 11.4975 35.7492 12.8472 34.1431 13.7908C35.7491 14.7342 37.0775 16.0842 37.9956 17.7048C38.8968 16.0716 40.2294 14.7178 41.8481 13.7908C40.2423 12.8471 38.9134 11.4974 37.9956 9.87671ZM38.9155 6.31519C38.9174 6.32026 38.9201 6.32634 38.9243 6.33472C38.931 6.348 38.9458 6.37514 38.9458 6.40503C38.9459 6.40567 38.9465 6.40739 38.9478 6.41089C38.9497 6.416 38.9523 6.42199 38.9565 6.43042C38.9631 6.44352 38.9779 6.47073 38.978 6.50073V6.5564C39.0016 6.5986 39.0134 6.64569 39.0093 6.69409H39.0103C39.0107 6.87482 39.4858 10.7372 44.4067 12.8142L44.5493 12.8865C44.6853 12.9694 44.8012 13.0827 44.8872 13.2185C45.0009 13.398 45.0563 13.6079 45.0474 13.8201L45.0464 13.9744C45.0332 14.1279 44.9839 14.2768 44.9019 14.4089C44.7925 14.5851 44.6308 14.7229 44.439 14.8015C41.9449 15.8407 40.5962 17.3581 39.8706 18.6179C39.5077 19.2481 39.3006 19.8142 39.1841 20.2244C39.1259 20.4294 39.0898 20.5953 39.0688 20.7107C39.0584 20.7684 39.0515 20.8136 39.0474 20.8445C39.0453 20.8597 39.0443 20.8715 39.0435 20.8796C39.0429 20.885 39.0426 20.8882 39.0425 20.8894V20.9089L39.0278 20.9236C39.0209 20.9308 39.0154 20.9395 39.0122 20.949C39.009 20.9586 39.008 20.9692 39.0093 20.9792L39.0122 21.0027L38.9956 21.0203C38.9887 21.0275 38.9831 21.0362 38.98 21.0457C38.9768 21.0552 38.9758 21.0659 38.9771 21.0759L38.981 21.1003L38.9634 21.1169C38.9537 21.1265 38.9467 21.1396 38.9448 21.1531C38.9428 21.1803 38.9304 21.2045 38.9243 21.2166C38.9201 21.225 38.9174 21.231 38.9155 21.2361C38.9143 21.2395 38.9137 21.2413 38.9136 21.2419C38.9136 21.2591 38.9093 21.2743 38.9019 21.2869C38.8954 21.2976 38.8869 21.3057 38.8833 21.3093L38.8813 21.3113V21.3269L38.8667 21.3416C38.857 21.3512 38.8522 21.3609 38.8442 21.3767C38.8362 21.3928 38.8246 21.4159 38.8022 21.4382L38.7388 21.5027L38.6743 21.5662L38.6099 21.6306C38.5875 21.653 38.5644 21.6646 38.5483 21.6726C38.5327 21.6804 38.5227 21.6846 38.5132 21.6941C38.4882 21.7193 38.4556 21.7361 38.4204 21.741L38.4136 21.7419C38.4128 21.7421 38.411 21.7427 38.4077 21.7439C38.4026 21.7458 38.3967 21.7484 38.3882 21.7527C38.381 21.7563 38.3689 21.7606 38.355 21.7654C38.3536 21.7677 38.3537 21.771 38.3521 21.7732C38.3407 21.7878 38.3251 21.7955 38.313 21.7996C38.2995 21.804 38.2845 21.803 38.272 21.8035C38.2575 21.8145 38.2425 21.825 38.2251 21.8308C38.2032 21.8381 38.1797 21.8397 38.1567 21.8376V21.8386H37.8804L37.8657 21.824C37.8584 21.817 37.849 21.8115 37.8394 21.8083C37.8299 21.8053 37.8199 21.8042 37.8101 21.8054L37.7534 21.8123V21.7742C37.7495 21.7741 37.745 21.7742 37.7397 21.7742C37.7099 21.7742 37.6827 21.7593 37.6694 21.7527C37.661 21.7485 37.655 21.7458 37.6499 21.7439C37.6452 21.7421 37.6431 21.7419 37.6431 21.7419H37.6226L37.6079 21.7273C37.5983 21.7176 37.5853 21.7116 37.5718 21.7097L37.5552 21.7068L37.5435 21.6951C37.5337 21.6854 37.5243 21.6806 37.5083 21.6726C37.4923 21.6646 37.4701 21.6529 37.4478 21.6306L37.395 21.5779C37.3865 21.5755 37.3781 21.5724 37.3706 21.5671C37.3578 21.5582 37.3492 21.5463 37.3442 21.5388C37.3328 21.5216 37.33 21.5139 37.3188 21.5027L37.2544 21.4382L37.1899 21.3416L37.1753 21.3269V21.3103L37.1743 21.3093C37.1708 21.3059 37.1623 21.2978 37.1558 21.2869C37.1482 21.2743 37.144 21.2592 37.144 21.2419C37.144 21.2413 37.1434 21.2395 37.1421 21.2361C37.1402 21.2309 37.1366 21.2251 37.1323 21.2166C37.1272 21.2064 37.119 21.1875 37.1147 21.1658C37.1002 21.1475 37.09 21.127 37.0845 21.1042C37.072 21.0887 37.0615 21.0715 37.0552 21.0525C37.0497 21.036 37.0476 21.019 37.0474 21.0017C37.0373 20.9878 37.0284 20.9731 37.0229 20.9568C37.0157 20.9351 37.0132 20.9121 37.0151 20.8894L36.9849 20.6599C36.8267 19.7724 35.9249 16.5873 31.6177 14.7693L31.6157 14.7673C31.4334 14.6776 31.2795 14.5386 31.1724 14.366C31.0921 14.2365 31.0407 14.092 31.02 13.9421L31.0093 13.7917C30.9953 13.5861 31.0461 13.381 31.1548 13.2058C31.264 13.0299 31.4262 12.8929 31.6177 12.8142L32.0669 12.614C34.2457 11.589 35.4669 10.2027 36.1509 9.02905C36.8798 7.77828 36.9997 6.76761 37.0161 6.68433C37.0333 6.44962 37.1338 6.2288 37.3003 6.06226C37.4683 5.89422 37.6921 5.79296 37.9292 5.7771H38.0298C38.261 5.78852 38.4844 5.86978 38.6694 6.01147H38.6685C38.7055 6.03178 38.7329 6.05908 38.7534 6.08374C38.7642 6.09671 38.7747 6.10956 38.7827 6.11987C38.7911 6.13072 38.7968 6.13879 38.8022 6.14429C38.8246 6.16665 38.8362 6.18973 38.8442 6.20581C38.8522 6.22176 38.857 6.23126 38.8667 6.24097L38.9136 6.28784V6.30835C38.9136 6.30835 38.9138 6.31047 38.9155 6.31519Z" fill="currentColor" stroke="currentColor" stroke-width="0.1"/>
</svg>
