<svg width="31" height="31" viewBox="0 0 31 31" fill="none" xmlns="http://www.w3.org/2000/svg">
<path d="M14.6663 4.73658C14.5681 4.73838 14.4706 4.72038 14.3795 4.68364C14.2885 4.6469 14.2057 4.59218 14.1363 4.52274C14.0669 4.45331 14.0122 4.37059 13.9754 4.27953C13.9387 4.18847 13.9207 4.09094 13.9225 3.99276V0.720978C13.9284 0.527752 14.0093 0.344427 14.1481 0.209846C14.2869 0.075264 14.4726 0 14.6659 0C14.8593 0 15.045 0.075264 15.1838 0.209846C15.3225 0.344427 15.4035 0.527752 15.4094 0.720978V3.96823C15.4088 4.1675 15.3311 4.3588 15.1926 4.50204C15.054 4.64528 14.8654 4.72933 14.6663 4.73658Z" fill="currentColor"/>
<path d="M7.1062 7.5846C7.00876 7.58497 6.91227 7.56538 6.82269 7.52704C6.7331 7.4887 6.65232 7.43242 6.58532 7.36167L4.45484 5.22768C4.37941 5.16117 4.31842 5.07992 4.27561 4.98894C4.2328 4.89795 4.20908 4.79916 4.20593 4.69865C4.20277 4.59814 4.22024 4.49806 4.25726 4.40457C4.29428 4.31107 4.35006 4.22615 4.42116 4.15505C4.49227 4.08395 4.57719 4.02817 4.67068 3.99115C4.76417 3.95413 4.86426 3.93666 4.96476 3.93982C5.06527 3.94297 5.16406 3.96669 5.25505 4.0095C5.34604 4.05231 5.42729 4.1133 5.49379 4.18873L7.62568 6.32061C7.72676 6.4247 7.79519 6.55609 7.82254 6.69859C7.84989 6.84109 7.83497 6.98847 7.7796 7.12259C7.72424 7.25672 7.63086 7.37172 7.51096 7.45343C7.39106 7.53515 7.24987 7.58001 7.1048 7.58249L7.1062 7.5846Z" fill="currentColor"/>
<path d="M22.1764 7.58656C22.0313 7.58407 21.8901 7.53921 21.7702 7.45749C21.6503 7.37578 21.5569 7.26078 21.5016 7.12666C21.4462 6.99253 21.4313 6.84515 21.4586 6.70265C21.486 6.56015 21.5544 6.42877 21.6555 6.32467L23.7874 4.19279C23.9276 4.06867 24.1098 4.00264 24.297 4.00813C24.4841 4.01362 24.6621 4.09023 24.7948 4.22236C24.9275 4.35449 25.0048 4.5322 25.011 4.71934C25.0173 4.90647 24.952 5.08895 24.8285 5.22964L22.6945 7.36362C22.6278 7.43403 22.5475 7.49011 22.4584 7.52844C22.3693 7.56677 22.2734 7.58654 22.1764 7.58656Z" fill="currentColor"/>
<path d="M11.492 23.8679C11.3155 23.8663 11.1451 23.8037 11.0095 23.6907C10.874 23.5778 10.7816 23.4215 10.7482 23.2482C10.4402 22.093 9.84306 21.0353 9.01308 20.1748C8.76491 19.8523 8.51744 19.5796 8.31905 19.2824C7.33047 17.9085 6.78569 16.2651 6.75781 14.5728C6.75695 13.3264 7.05074 12.0974 7.61521 10.9862C8.17969 9.87498 8.99886 8.91293 10.0059 8.17853C11.0129 7.44414 12.1793 6.95821 13.4099 6.76039C14.6405 6.56256 15.9004 6.65845 17.0869 7.04022C18.2734 7.42199 19.3528 8.07884 20.2371 8.95717C21.1214 9.8355 21.7856 10.9104 22.1754 12.0943C22.5652 13.2781 22.6696 14.5374 22.4801 15.7693C22.2907 17.0012 21.8127 18.1708 21.0851 19.1828C20.8124 19.5796 20.5152 19.9757 20.1681 20.3971C19.4098 21.2725 18.7759 22.2485 18.2844 23.2973C18.2216 23.4835 18.0885 23.6377 17.9136 23.7271C17.7386 23.8165 17.5357 23.834 17.348 23.7758C17.1603 23.7176 17.0029 23.5883 16.9092 23.4156C16.8155 23.2429 16.793 23.0405 16.8466 22.8514C17.3708 21.6253 18.0825 20.4882 18.956 19.4808C19.2785 19.0602 19.5758 18.6879 19.8239 18.3156C20.5166 17.358 20.931 16.2275 21.0213 15.0491C21.1116 13.8707 20.8743 12.6903 20.3356 11.6383C19.7969 10.5863 18.9779 9.7038 17.9689 9.08827C16.96 8.47273 15.8005 8.14817 14.6187 8.15046C13.7796 8.15209 12.9491 8.31979 12.1752 8.6439C11.4012 8.968 10.6991 9.4421 10.1092 10.0389C9.51939 10.6356 9.0535 11.3432 8.73843 12.1209C8.42335 12.8986 8.26534 13.7309 8.27348 14.57C8.29781 15.9612 8.74747 17.3116 9.562 18.4397C9.73586 18.6879 9.9588 18.9606 10.1817 19.2326C11.1884 20.2809 11.8911 21.5832 12.2148 23C12.2312 23.0977 12.2282 23.1976 12.206 23.2941C12.1837 23.3906 12.1426 23.4818 12.085 23.5623C12.0274 23.6429 11.9545 23.7113 11.8704 23.7636C11.7863 23.816 11.6928 23.8512 11.595 23.8672L11.492 23.8679Z" fill="currentColor"/>
<path d="M18.9292 14.6786C18.7531 14.6758 18.5833 14.6128 18.448 14.5C18.3126 14.3873 18.22 14.2316 18.1854 14.0589C18.0795 13.4058 17.804 12.7919 17.3864 12.2787C16.9689 11.7654 16.424 11.3707 15.8061 11.1341C15.7126 11.1 15.6269 11.0475 15.5541 10.9798C15.4812 10.9121 15.4226 10.8305 15.3817 10.7398C15.3409 10.649 15.3186 10.5511 15.3161 10.4516C15.3137 10.3522 15.3312 10.2532 15.3676 10.1606C15.404 10.068 15.4585 9.98365 15.528 9.91245C15.5975 9.84125 15.6805 9.78466 15.7722 9.74603C15.8639 9.7074 15.9624 9.6875 16.0618 9.6875C16.1613 9.6875 16.2598 9.7074 16.3515 9.74604C17.2126 10.0738 17.9726 10.6218 18.5555 11.3354C19.1383 12.0489 19.5237 12.9029 19.6731 13.8121C19.6884 13.9081 19.6844 14.0062 19.6615 14.1007C19.6385 14.1952 19.597 14.2842 19.5393 14.3625C19.4816 14.4408 19.409 14.5068 19.3255 14.5567C19.2421 14.6067 19.1496 14.6395 19.0533 14.6534C19.0146 14.6715 18.972 14.6802 18.9292 14.6786Z" fill="currentColor"/>
<path d="M4.2834 16.4001H0.778161C0.57178 16.4001 0.373852 16.3181 0.227918 16.1722C0.0819847 16.0262 0 15.8283 0 15.6219C0 15.4155 0.0819847 15.2176 0.227918 15.0717C0.373852 14.9257 0.57178 14.8438 0.778161 14.8438H4.2834C4.48978 14.8437 4.68771 14.9257 4.83364 15.0717C4.97957 15.2176 5.06156 15.4155 5.06156 15.6219C5.06156 15.8283 4.97957 16.0262 4.83364 16.1722C4.68771 16.3181 4.48978 16.4001 4.2834 16.4001Z" fill="#EBB129"/>
<path d="M28.2014 15.0263H24.8553C24.662 15.0204 24.4787 14.9395 24.3441 14.8007C24.2095 14.6619 24.1343 14.4762 24.1343 14.2829C24.1343 14.0896 24.2095 13.9038 24.3441 13.7651C24.4787 13.6263 24.662 13.5453 24.8553 13.5394H28.2014C28.3009 13.5364 28.4001 13.5533 28.4929 13.5893C28.5858 13.6253 28.6705 13.6796 28.742 13.7489C28.8135 13.8182 28.8704 13.9012 28.9092 13.993C28.948 14.0847 28.968 14.1833 28.968 14.2829C28.968 14.3825 28.948 14.4811 28.9092 14.5728C28.8704 14.6645 28.8135 14.7475 28.742 14.8168C28.6705 14.8862 28.5858 14.9404 28.4929 14.9764C28.4001 15.0124 28.3009 15.0294 28.2014 15.0263Z" fill="currentColor"/>
<path d="M4.9757 24.617C4.83063 24.6145 4.68945 24.5696 4.56955 24.4879C4.44964 24.4062 4.35626 24.2912 4.3009 24.1571C4.24554 24.0229 4.23061 23.8756 4.25796 23.7331C4.28531 23.5906 4.35374 23.4592 4.45483 23.3551L6.58671 21.2232C6.65383 21.1527 6.73458 21.0965 6.82406 21.0581C6.91354 21.0198 7.00988 21 7.10724 21C7.2046 21 7.30094 21.0198 7.39042 21.0581C7.4799 21.0965 7.56065 21.1527 7.62777 21.2232C7.76481 21.3618 7.84167 21.5488 7.84167 21.7437C7.84167 21.9386 7.76481 22.1257 7.62777 22.2643L5.49378 24.394C5.42861 24.4663 5.34856 24.5237 5.25914 24.5622C5.16972 24.6007 5.07303 24.6194 4.9757 24.617Z" fill="currentColor"/>
<path d="M24.3089 24.6155C24.2114 24.6159 24.1149 24.5963 24.0254 24.558C23.9358 24.5196 23.855 24.4634 23.788 24.3926L21.6575 22.2586C21.5194 22.1206 21.4419 21.9333 21.4419 21.7381C21.4419 21.5429 21.5195 21.3556 21.6575 21.2176C21.7956 21.0795 21.9828 21.002 22.178 21.002C22.3733 21.002 22.5605 21.0795 22.6986 21.2176L24.8304 23.3494C24.901 23.4166 24.9571 23.4973 24.9955 23.5868C25.0339 23.6763 25.0536 23.7726 25.0536 23.87C25.0536 23.9673 25.0339 24.0637 24.9955 24.1532C24.9571 24.2426 24.901 24.3234 24.8304 24.3905C24.6925 24.5305 24.5054 24.6112 24.3089 24.6155Z" fill="currentColor"/>
<path d="M17.3191 25.9013H11.792C11.6925 25.9044 11.5933 25.8874 11.5005 25.8514C11.4076 25.8155 11.3229 25.7612 11.2514 25.6918C11.1799 25.6225 11.123 25.5395 11.0842 25.4478C11.0454 25.3561 11.0254 25.2575 11.0254 25.1579C11.0254 25.0583 11.0454 24.9597 11.0842 24.868C11.123 24.7762 11.1799 24.6932 11.2514 24.6239C11.3229 24.5546 11.4076 24.5003 11.5005 24.4643C11.5933 24.4283 11.6925 24.4114 11.792 24.4144H17.2945C17.4885 24.4162 17.674 24.4937 17.8116 24.6304C17.9493 24.767 18.0281 24.952 18.0313 25.1459C18.0345 25.3398 17.9618 25.5273 17.8288 25.6684C17.6957 25.8095 17.5129 25.8931 17.3191 25.9013Z" fill="currentColor"/>
<path d="M17.3956 28.3326H11.7171C11.5238 28.3267 11.3405 28.2458 11.2059 28.107C11.0714 27.9682 10.9961 27.7825 10.9961 27.5892C10.9961 27.3958 11.0714 27.2101 11.2059 27.0713C11.3405 26.9326 11.5238 26.8516 11.7171 26.8457H17.3956C17.5888 26.8516 17.7721 26.9326 17.9067 27.0713C18.0413 27.2101 18.1165 27.3958 18.1165 27.5892C18.1165 27.7825 18.0413 27.9682 17.9067 28.107C17.7721 28.2458 17.5888 28.3267 17.3956 28.3326Z" fill="currentColor"/>
<path d="M16.1031 30.5888H13.104C13.0045 30.5919 12.9053 30.5749 12.8125 30.5389C12.7196 30.503 12.6349 30.4487 12.5634 30.3793C12.4919 30.31 12.4351 30.227 12.3962 30.1353C12.3574 30.0436 12.3374 29.945 12.3374 29.8454C12.3374 29.7458 12.3574 29.6472 12.3962 29.5555C12.4351 29.4637 12.4919 29.3807 12.5634 29.3114C12.6349 29.2421 12.7196 29.1878 12.8125 29.1518C12.9053 29.1158 13.0045 29.0989 13.104 29.1019H16.1031C16.2013 29.1001 16.2988 29.1181 16.3899 29.1549C16.481 29.1916 16.5637 29.2463 16.6331 29.3157C16.7025 29.3852 16.7573 29.4679 16.794 29.559C16.8307 29.65 16.8487 29.7476 16.8469 29.8457C16.8462 30.0427 16.7676 30.2314 16.6282 30.3706C16.4889 30.5098 16.3001 30.5883 16.1031 30.5888Z" fill="currentColor"/>
</svg>
