<svg width="48" height="49" viewBox="0 0 48 49" fill="none" xmlns="http://www.w3.org/2000/svg">
<path d="M11.4551 9.43372C11.5962 9.42911 11.735 9.46737 11.8535 9.54407H11.8545C11.889 9.56476 11.9196 9.5914 11.9443 9.62317L11.9424 9.62415C11.9536 9.6367 11.9622 9.64693 11.9658 9.65344L11.9775 9.66418L12.0127 9.69446V9.7218C12.0142 9.72477 12.0161 9.72806 12.0176 9.73157C12.0219 9.74149 12.0283 9.75908 12.0283 9.78137C12.0283 9.76592 12.0238 9.75507 12.0225 9.75208C12.0238 9.75446 12.0291 9.76316 12.0332 9.77258C12.0375 9.78251 12.0439 9.80101 12.0439 9.82336V9.83118C12.0543 9.85543 12.0599 9.8807 12.0586 9.90735H12.0596C12.0598 9.90938 12.0627 9.93645 12.0732 9.9884C12.0837 10.0399 12.1011 10.1114 12.1299 10.1984C12.1877 10.373 12.2905 10.6094 12.4668 10.8712C12.8186 11.3938 13.4694 12.0231 14.667 12.465H14.666C14.7722 12.5003 14.8647 12.5682 14.9297 12.6593C14.994 12.7496 15.028 12.8581 15.0273 12.9689L15.0234 13.0519C15.0133 13.1338 14.9829 13.2124 14.9346 13.2804C14.8703 13.3708 14.7781 13.4377 14.6719 13.4698C12.2677 14.3473 12.0725 16.0171 12.0703 16.0128V16.0587L12.0518 16.0734L12.0508 16.0802C12.0426 16.1096 12.0292 16.137 12.0137 16.1632C12.0125 16.1666 12.0138 16.1705 12.0127 16.173C12.0098 16.1797 12.0061 16.1857 12.0039 16.1896C12.0032 16.1927 12.003 16.1962 12.002 16.1993C11.9996 16.2068 11.9955 16.2129 11.9922 16.2189V16.2365L11.9639 16.2618L11.9258 16.3077L11.9268 16.3087L11.8643 16.3634L11.833 16.3917L11.832 16.3927C11.8116 16.4103 11.7911 16.4185 11.7832 16.422L11.7852 16.42C11.7623 16.4398 11.7339 16.4519 11.7041 16.4562C11.7024 16.4569 11.6993 16.4585 11.6953 16.4601C11.6816 16.4704 11.6687 16.4768 11.6592 16.4796C11.6513 16.4819 11.643 16.4807 11.6357 16.4816C11.6286 16.4848 11.6228 16.4911 11.6152 16.4933C11.5981 16.4983 11.5803 16.498 11.5625 16.4972V16.4991H11.4004L11.3848 16.4865L11.2881 16.4991V16.4581H11.2725L11.2539 16.4425L11.2363 16.4406L11.2129 16.42C11.2172 16.4238 11.2216 16.4254 11.2139 16.422C11.2061 16.4186 11.1861 16.41 11.166 16.3927L11.165 16.3917L11.1475 16.3751C11.1442 16.3735 11.1399 16.3732 11.1367 16.3712C11.119 16.3598 11.1086 16.3454 11.1045 16.34C11.0937 16.3255 11.1005 16.3344 11.1035 16.337L11.1025 16.3361L11.0713 16.3087V16.3077C11.0518 16.2902 11.0406 16.2719 11.0361 16.2638L11.0068 16.2374V16.2208C11.0032 16.2145 10.9987 16.2075 10.9961 16.1993C10.9951 16.1961 10.9949 16.1928 10.9941 16.1896C10.992 16.1857 10.9883 16.1797 10.9854 16.173C10.9841 16.17 10.9839 16.1656 10.9824 16.1613C10.9598 16.1223 10.9419 16.0809 10.9307 16.0372L10.9268 16.0245V16.0128C10.9267 16.0128 10.925 15.9857 10.9141 15.9318C10.9036 15.8802 10.8863 15.8081 10.8574 15.7208C10.7996 15.5462 10.6968 15.3099 10.5205 15.048C10.1687 14.5254 9.51779 13.8961 8.32031 13.4542H8.31934C8.21936 13.4159 8.13332 13.3481 8.07129 13.2609C8.00928 13.1736 7.97402 13.07 7.9707 12.963L7.97168 12.962C7.96746 12.8516 7.99851 12.7426 8.0625 12.6525C8.12567 12.5636 8.21642 12.4978 8.32031 12.465C9.51783 12.0235 10.1648 11.3915 10.5146 10.8673C10.8641 10.3434 10.9212 9.92241 10.9297 9.88489C10.9487 9.76088 11.0109 9.64733 11.1055 9.56458C11.2013 9.48077 11.3239 9.43486 11.4512 9.43372V9.43274L11.4531 9.43372L11.4551 9.43274V9.43372ZM11.0312 16.2521L11.0332 16.2531C11.0329 16.2528 11.0311 16.2518 11.0293 16.2501L11.0312 16.2521ZM11.4854 11.4073C11.0382 12.0548 10.4451 12.5857 9.75293 12.9591C10.4446 13.3321 11.0372 13.8632 11.4844 14.5099C11.9254 13.8579 12.519 13.3251 13.2148 12.9581C12.5239 12.5848 11.9319 12.0539 11.4854 11.4073Z" fill="currentColor" stroke="currentColor" stroke-width="0.2"/>
<path d="M18.9912 28.3794C18.9912 29.7369 18.5886 31.064 17.8344 32.1928C17.0802 33.3216 16.0081 34.2014 14.7539 34.7209C13.4997 35.2404 12.1196 35.3763 10.7881 35.1115C9.4566 34.8466 8.23355 34.1929 7.2736 33.233C6.31366 32.273 5.65993 31.05 5.39508 29.7185C5.13023 28.387 5.26616 27.0069 5.78568 25.7526C6.3052 24.4984 7.18497 23.4264 8.31375 22.6722C9.44253 21.9179 10.7696 21.5154 12.1272 21.5154C13.9476 21.5154 15.6935 22.2385 16.9808 23.5258C18.268 24.813 18.9912 26.5589 18.9912 28.3794Z" stroke="currentColor" stroke-width="2.5"/>
<path d="M41.5407 17.9607L30.7285 7.14844L19.9163 17.9607L30.7285 28.7729L41.5407 17.9607Z" stroke="currentColor" stroke-width="2.5" stroke-linecap="round" stroke-linejoin="round"/>
<path d="M37.0688 32.275C37.21 32.2704 37.3487 32.3087 37.4673 32.3854H37.4683C37.5028 32.4061 37.5334 32.4327 37.5581 32.4645L37.5562 32.4655C37.5674 32.478 37.5759 32.4882 37.5796 32.4948L37.5913 32.5055L37.6265 32.5358V32.5631C37.628 32.5661 37.6298 32.5694 37.6313 32.5729C37.6356 32.5828 37.6421 32.6004 37.6421 32.6227C37.6421 32.6072 37.6375 32.5964 37.6362 32.5934C37.6376 32.5958 37.6429 32.6045 37.647 32.6139C37.6513 32.6238 37.6577 32.6423 37.6577 32.6647V32.6725C37.6681 32.6967 37.6737 32.722 37.6724 32.7487H37.6733C37.6735 32.7507 37.6764 32.7778 37.687 32.8297C37.6975 32.8812 37.7149 32.9527 37.7437 33.0397C37.8015 33.2143 37.9043 33.4507 38.0806 33.7125C38.4323 34.2351 39.0832 34.8644 40.2808 35.3063H40.2798C40.386 35.3416 40.4786 35.4103 40.5435 35.5016C40.6076 35.592 40.641 35.7004 40.6401 35.8112L40.6372 35.8932C40.6271 35.9752 40.5966 36.0537 40.5483 36.1217C40.485 36.2109 40.3938 36.2755 40.2896 36.3082L40.2905 36.3102C37.8722 37.1906 37.6847 38.8716 37.6841 38.8541V38.9L37.6665 38.9147L37.6646 38.9225C37.6566 38.9512 37.6434 38.9779 37.6284 39.0035C37.6271 39.0074 37.6277 39.0115 37.6265 39.0143C37.6236 39.0208 37.6199 39.027 37.6177 39.0309C37.617 39.0341 37.6167 39.0374 37.6157 39.0406C37.6131 39.0488 37.6086 39.0557 37.605 39.0621V39.0787L37.5747 39.1041C37.5698 39.1129 37.5597 39.1313 37.5396 39.149L37.5093 39.1774L37.478 39.2057L37.4468 39.233L37.4458 39.234C37.4253 39.2518 37.4049 39.2608 37.397 39.2643C37.3892 39.2677 37.3935 39.266 37.3979 39.2623C37.3755 39.2816 37.348 39.293 37.3188 39.2975H37.3208C37.3202 39.2977 37.3191 39.2979 37.3179 39.2985C37.3164 39.2991 37.3135 39.3 37.3101 39.3014C37.296 39.3122 37.2827 39.319 37.2729 39.3219C37.2648 39.3243 37.256 39.323 37.2485 39.3239C37.2417 39.3269 37.2363 39.3335 37.229 39.3356C37.2116 39.3406 37.1933 39.3404 37.1753 39.3395V39.3414H37.0132L36.9976 39.3278L36.9019 39.3405V39.3004H36.8862L36.8667 39.2838L36.8501 39.2819L36.8267 39.2623C36.8309 39.2659 36.8353 39.2667 36.8276 39.2633C36.82 39.2599 36.8 39.2514 36.7798 39.234L36.7778 39.233L36.7583 39.2155C36.756 39.2142 36.7528 39.214 36.7505 39.2125C36.7331 39.2014 36.7226 39.188 36.7183 39.1823C36.7073 39.1675 36.7143 39.1757 36.7173 39.1783L36.7153 39.1774L36.6851 39.15H36.6841C36.6648 39.1327 36.6555 39.1133 36.6509 39.1051L36.6196 39.0797V39.0612C36.6163 39.0552 36.6123 39.0491 36.6099 39.0416C36.6092 39.0395 36.6094 39.0369 36.6089 39.0348C36.6073 39.0321 36.6031 39.0236 36.5991 39.0143C36.5985 39.0129 36.5988 39.011 36.5981 39.0094C36.5901 38.9975 36.5838 38.9851 36.5796 38.9713L36.5786 38.9723C36.5683 38.9448 36.5577 38.9168 36.5474 38.8893L36.5405 38.8717V38.8541C36.5405 38.8541 36.5388 38.827 36.5278 38.7731C36.5173 38.7215 36.5001 38.6494 36.4712 38.5621C36.4134 38.3875 36.3106 38.1512 36.1343 37.8893C35.7825 37.3667 35.1316 36.7374 33.9341 36.2955H33.9331C33.8331 36.2572 33.7471 36.1895 33.6851 36.1022C33.6231 36.0149 33.5878 35.9113 33.5845 35.8043L33.5854 35.8033C33.5812 35.693 33.6123 35.5839 33.6763 35.4938C33.7394 35.4049 33.8302 35.3391 33.9341 35.3063C35.1316 34.8648 35.7786 34.2328 36.1284 33.7086C36.4779 33.1847 36.5349 32.7637 36.5435 32.7262C36.5625 32.6022 36.6247 32.4886 36.7192 32.4059C36.8151 32.3221 36.9377 32.2762 37.0649 32.275V32.274L37.0669 32.275L37.0688 32.274V32.275ZM37.5786 39.0953L37.5806 39.0944C37.5811 39.0939 37.5808 39.0922 37.5815 39.0914C37.5798 39.093 37.579 39.095 37.5786 39.0953ZM37.0991 34.2487C36.6519 34.8961 36.0588 35.427 35.3667 35.8004C36.0583 36.1734 36.651 36.7045 37.0981 37.3512C37.5392 36.6992 38.1327 36.1664 38.8286 35.7994C38.1377 35.4261 37.5457 34.8952 37.0991 34.2487Z" fill="currentColor" stroke="currentColor" stroke-width="0.2"/>
<path d="M25.6729 33.5298L30.9157 43.5674" stroke="currentColor" stroke-width="2.5" stroke-miterlimit="10" stroke-linecap="round"/>
<path d="M20.6782 43.5674L25.4584 33.5298" stroke="currentColor" stroke-width="2.5" stroke-miterlimit="10" stroke-linecap="round"/>
<path d="M30.9758 43.8259H20.6782" stroke="currentColor" stroke-width="2.5" stroke-miterlimit="10" stroke-linecap="round"/>
<path d="M9.75342 43.772H16.9796" stroke="currentColor" stroke-width="2.5" stroke-miterlimit="10" stroke-linecap="round"/>
<path d="M4.99316 43.772H6.48671" stroke="currentColor" stroke-width="2.5" stroke-miterlimit="10" stroke-linecap="round"/>
</svg>
