<svg width="48" height="49" viewBox="0 0 48 49" fill="none" xmlns="http://www.w3.org/2000/svg">
<path d="M40.65 26.9268C40.65 37.1268 32.4 45.3768 22.2 45.3768C12 45.3768 3.75 37.1268 3.75 26.9268C3.75 16.7268 10.05 10.5768 18.45 8.92676" stroke="currentColor" stroke-width="2.5" stroke-miterlimit="10" stroke-linecap="round"/>
<path d="M30.2998 20.9268C30.5998 22.8768 30.7498 24.8268 30.7498 26.9268C30.7498 37.1268 26.8498 45.3768 21.8998 45.3768C16.9498 45.3768 13.0498 37.1268 13.0498 26.9268C13.0498 16.7268 15.2998 11.6268 18.4498 8.92676" stroke="currentColor" stroke-width="2.5" stroke-miterlimit="10" stroke-linecap="round"/>
<path d="M3.75 26.9268H40.35" stroke="currentColor" stroke-width="2.5" stroke-miterlimit="10" stroke-linecap="round"/>
<path d="M37.6502 36.8267H10.2002" stroke="currentColor" stroke-width="2.5" stroke-miterlimit="10" stroke-linecap="round"/>
<path d="M6.2998 17.6267H18.2998" stroke="currentColor" stroke-width="2.5" stroke-miterlimit="10" stroke-linecap="round"/>
<path d="M24.9004 17.9266H22.8004C21.9004 17.9266 21.1504 17.1766 21.1504 16.2766V5.92661C21.1504 5.02661 21.9004 4.27661 22.8004 4.27661H39.0004C39.9004 4.27661 40.6504 5.02661 40.6504 5.92661V16.2766C40.6504 17.1766 39.9004 17.9266 39.0004 17.9266H30.4504" stroke="currentColor" stroke-width="2.5" stroke-miterlimit="10" stroke-linecap="round"/>
<path d="M24.9004 17.9265V21.9765" stroke="currentColor" stroke-width="2.5" stroke-miterlimit="10" stroke-linecap="round"/>
<path d="M30.4504 17.9265L24.9004 21.9765" stroke="currentColor" stroke-width="2.5" stroke-miterlimit="10" stroke-linecap="round"/>
<path d="M32.7002 20.4766H34.9502" stroke="currentColor" stroke-width="2.5" stroke-miterlimit="10" stroke-linecap="round"/>
<path d="M40.5 20.4767H42.6C43.5 20.4767 44.25 19.7267 44.25 18.8267V8.47666C44.25 7.57666 43.5 6.82666 42.6 6.82666" stroke="currentColor" stroke-width="2.5" stroke-miterlimit="10" stroke-linecap="round"/>
<path d="M40.5 20.4766V24.5266" stroke="currentColor" stroke-width="2.5" stroke-miterlimit="10" stroke-linecap="round"/>
<path d="M34.9502 20.4766L40.5002 24.5266" stroke="currentColor" stroke-width="2.5" stroke-miterlimit="10" stroke-linecap="round"/>
<path d="M26.8496 15.2267L30.5996 7.12671" stroke="currentColor" stroke-width="2" stroke-miterlimit="10" stroke-linecap="round"/>
<path d="M30.5996 7.12671L34.4996 15.2267" stroke="currentColor" stroke-width="2" stroke-miterlimit="10" stroke-linecap="round"/>
<path d="M28.3496 12.3767H32.9996" stroke="currentColor" stroke-width="2" stroke-miterlimit="10" stroke-linecap="round"/>
</svg>
