<svg width="20" height="20" viewBox="0 0 20 20" fill="none" xmlns="http://www.w3.org/2000/svg">
<path d="M16.0929 8.25831C16.0929 13.3948 10.0334 17.377 10.0334 17.377C10.0334 17.377 3.97339 13.4134 3.97339 8.25831C3.99765 6.67512 4.64956 5.16636 5.78584 4.06366C6.92211 2.96095 8.44975 2.35457 10.0329 2.37779C10.8173 2.36464 11.5966 2.50645 12.3261 2.79511C13.0555 3.08376 13.7208 3.51357 14.2838 4.0599C14.8468 4.60622 15.2964 5.25831 15.6069 5.97877C15.9173 6.69923 16.0825 7.47388 16.0929 8.25831Z" fill="currentColor "/>
<path d="M10.0334 11.0303C11.5313 11.0303 12.7457 9.81309 12.7457 8.31155C12.7457 6.81001 11.5313 5.59277 10.0334 5.59277C8.53539 5.59277 7.32104 6.81001 7.32104 8.31155C7.32104 9.81309 8.53539 11.0303 10.0334 11.0303Z" fill="white"/>
</svg>
