<svg width="32" height="32" viewBox="0 0 32 32" fill="none" xmlns="http://www.w3.org/2000/svg">
<path d="M25.7097 11.0449V20.1453C25.7019 22.7566 24.6612 25.2587 22.8147 27.1051C20.9682 28.9516 18.4661 29.9923 15.8548 30.0001C13.2435 29.9923 10.7414 28.9516 8.89498 27.1051C7.04852 25.2587 6.00775 22.7566 6 20.1453V11.0449" stroke="currentColor" stroke-width="2.46154" stroke-miterlimit="10" stroke-linecap="round"/>
<path d="M6.09253 11.0449H25.6167" stroke="currentColor" stroke-width="2.46154" stroke-miterlimit="10" stroke-linecap="round"/>
<path d="M10.209 10.9813V7.6448C10.2135 6.14909 10.8096 4.71593 11.8673 3.6583C12.9249 2.60066 14.3581 2.00449 15.8538 2C17.3495 2.00449 18.7827 2.60066 19.8403 3.6583C20.8979 4.71593 21.4941 6.14909 21.4986 7.6448V10.9813" stroke="currentColor" stroke-width="2.46154" stroke-miterlimit="10" stroke-linecap="round"/>
<path d="M15.8526 21.5861C17.4545 21.5861 18.7531 20.2875 18.7531 18.6856C18.7531 17.0837 17.4545 15.7852 15.8526 15.7852C14.2507 15.7852 12.9521 17.0837 12.9521 18.6856C12.9521 20.2875 14.2507 21.5861 15.8526 21.5861Z" stroke="currentColor" stroke-width="2.46154" stroke-miterlimit="10" stroke-linecap="round"/>
<path d="M15.8535 24.8298V21.8984" stroke="currentColor" stroke-width="2.46154" stroke-miterlimit="10" stroke-linecap="round"/>
</svg>
