<svg width="217" height="83" viewBox="0 0 217 83" fill="none" xmlns="http://www.w3.org/2000/svg">
<path d="M88.7435 67.8044H94.234C96.0008 66.3918 97.5123 65.0514 98.7202 63.9167L80.2628 25.2363H75.4194L55.4609 66.6757V67.8053H66.8766L69.3786 62.4869H86.1803L88.7435 67.8044ZM72.7829 53.7814L77.7808 42.3152L82.8459 53.7831L72.7829 53.7814Z" fill="#EF9045"/>
<path d="M54.7862 25.7002L49.6219 36.6717L44.2057 48.4829H43.5276L35.6111 26.3979H30.2794L22.3629 48.4829H21.6848L16.2677 36.6717L11.1043 25.7002H0V26.9674L19.4348 68.233H25.0529L32.6217 48.6722H33.2679L40.8367 68.233H46.4548L65.8896 26.9674V25.7002H54.7862Z" fill="#EF9045"/>
<path d="M164.888 47.523L164.748 47.3105L164.921 47.1238C167.116 44.7589 167.961 42.442 170.861 37.7405C171.93 35.9752 173.524 34.5865 175.422 33.7684L170.88 25.8415C169.005 26.341 167.251 27.2141 165.724 28.4081C164.197 29.602 162.928 31.0922 161.994 32.7885C158.96 38.0459 158.347 40.6724 156.231 41.7073C154.774 42.4472 152.221 42.4291 150.35 42.4162H149.381V25.666H138.587V67.8065H149.38V51.4822H149.705C151.506 51.5161 153.308 51.4559 155.103 51.3015L155.32 51.2705L155.43 51.4607L164.906 67.8065H177.34V66.5797C174.886 62.9096 172.454 59.1613 170.104 55.5359C168.374 52.8598 166.636 50.1888 164.888 47.523Z" fill="#EF9045"/>
<path d="M217 25.665H205.38L197.437 39.8472H196.554L188.606 25.665H176.866V26.903L191.567 51.1095V67.8081H202.362V51.1078L202.409 51.0304L217 26.903V25.665Z" fill="#EF9045"/>
<path d="M132.956 82.2292C132.234 82.2297 131.532 81.9899 130.962 81.5478C129.31 80.2694 90.5071 49.9323 91.5571 22.4868C92.0385 9.87721 101.996 0 114.229 0C120.241 0.00592023 126.005 2.3898 130.256 6.62858C134.508 10.8674 136.899 16.6148 136.906 22.6098C136.906 36.5141 126.891 47.2344 122.584 51.197C122.271 51.4916 121.902 51.7214 121.499 51.873C121.096 52.0245 120.667 52.0949 120.237 52.08C119.806 52.0651 119.383 51.9652 118.991 51.7862C118.6 51.6071 118.248 51.3524 117.956 51.0368C117.664 50.7212 117.437 50.351 117.289 49.9475C117.142 49.5441 117.076 49.1154 117.095 48.6863C117.115 48.2573 117.219 47.8363 117.403 47.4478C117.587 47.0594 117.846 46.7111 118.166 46.4231C121.033 43.7828 130.39 34.2652 130.39 22.6098C130.385 18.3378 128.681 14.2422 125.652 11.2216C122.623 8.20092 118.515 6.50184 114.231 6.49705C105.518 6.49705 98.4184 13.629 98.0707 22.7337C97.1493 46.8507 134.582 76.121 134.96 76.4169C135.496 76.8323 135.889 77.4046 136.084 78.0537C136.278 78.7028 136.264 79.3962 136.044 80.0371C135.823 80.6779 135.408 81.2339 134.855 81.6274C134.302 82.021 133.639 82.2323 132.96 82.2318L132.956 82.2292Z" fill="white"/>
<path d="M114.611 32.3811C119.649 32.3811 123.734 28.3079 123.734 23.2833C123.734 18.2588 119.649 14.1855 114.611 14.1855C109.572 14.1855 105.487 18.2588 105.487 23.2833C105.487 28.3079 109.572 32.3811 114.611 32.3811Z" fill="white"/>
<path d="M87.4593 82.6294C86.743 82.6293 86.0468 82.3939 85.4782 81.9595C84.9096 81.5252 84.5003 80.9162 84.3137 80.2266C84.1271 79.537 84.1735 78.8053 84.4458 78.1447C84.7181 77.4841 85.2011 76.9314 85.8201 76.572C92.0212 72.9732 97.6359 68.4528 102.471 63.1666C103.032 62.5209 103.826 62.1217 104.68 62.0556C105.535 61.9895 106.381 62.2619 107.036 62.8136C107.69 63.3652 108.1 64.1519 108.177 65.003C108.254 65.8542 107.991 66.7012 107.446 67.3607C102.144 73.229 95.9534 78.233 89.0985 82.1907C88.6008 82.4795 88.035 82.6309 87.4593 82.6294Z" fill="white"/>
<path d="M144.274 72.4033C139.724 73.3393 138.352 78.8848 128.02 77.5978L125.302 82.5876H155.617C155.617 82.5876 153.616 70.4805 144.274 72.4033Z" fill="white"/>
<path d="M102.548 74.869C100.099 75.2776 97.2668 78.0831 93.6917 78.5683C91.2234 78.9038 88.8198 78.8746 84.1584 78.0822L81.5029 82.8544H110.694C110.694 82.8544 109.996 73.6267 102.548 74.869Z" fill="white"/>
</svg>
