<svg width="30" height="32" viewBox="0 0 30 32" fill="none" xmlns="http://www.w3.org/2000/svg">
<path d="M13.8983 5.60781C14.2474 5.50962 14.6183 5.45508 15.0001 5.45508C17.2583 5.45508 19.091 7.28781 19.091 9.54599C19.091 11.8042 17.2583 13.6369 15.0001 13.6369C12.7419 13.6369 10.9092 11.8042 10.9092 9.54599C10.9092 8.81508 11.1055 8.1169 11.4437 7.52781" stroke="currentColor" stroke-width="1.70455" stroke-miterlimit="10" stroke-linecap="round"/>
<path d="M6.81809 20.4551H4.09082" stroke="currentColor" stroke-width="1.70455" stroke-miterlimit="10" stroke-linecap="round"/>
<path d="M1.36328 30.0005L4.09055 20.4551" stroke="currentColor" stroke-width="1.70455" stroke-miterlimit="10" stroke-linecap="round"/>
<path d="M8.18146 27.2734L1.36328 30.0007" stroke="currentColor" stroke-width="1.70455" stroke-miterlimit="10" stroke-linecap="round"/>
<path d="M14.9998 30.0007L8.18164 27.2734" stroke="currentColor" stroke-width="1.70455" stroke-miterlimit="10" stroke-linecap="round"/>
<path d="M20.4545 27.2734L15 30.0007" stroke="currentColor" stroke-width="1.70455" stroke-miterlimit="10" stroke-linecap="round"/>
<path d="M28.6359 30.0007L20.4541 27.2734" stroke="currentColor" stroke-width="1.70455" stroke-miterlimit="10" stroke-linecap="round"/>
<path d="M24.5459 20.4551L28.6368 30.0005" stroke="currentColor" stroke-width="1.70455" stroke-miterlimit="10" stroke-linecap="round"/>
<path d="M23.1816 20.4551H24.5453" stroke="currentColor" stroke-width="1.70455" stroke-miterlimit="10" stroke-linecap="round"/>
<path d="M20.4541 23.1816V25.9089" stroke="currentColor" stroke-width="1.70455" stroke-miterlimit="10" stroke-linecap="round"/>
<path d="M8.07171 23.1815L7.89284 26.2254" stroke="currentColor" stroke-width="1.70455" stroke-miterlimit="10" stroke-linecap="round"/>
<path d="M14.9973 23.1815C14.9973 23.1815 6.81836 17.3789 6.81836 9.87588C6.81836 5.17854 10.4841 1.36328 14.9973 1.36328C19.5106 1.36328 23.3499 5.17854 23.1763 9.87588C23.0027 14.5732 19.4902 18.9517 17.1212 21.2898" stroke="currentColor" stroke-width="1.70455" stroke-miterlimit="10" stroke-linecap="round"/>
</svg>
