<svg width="139" height="53" viewBox="0 0 139 53" fill="none" xmlns="http://www.w3.org/2000/svg">
<path d="M56.7676 43.3724H60.2797C61.41 42.4688 62.3768 41.6114 63.1495 40.8855L51.3427 16.1426H48.2445L35.4775 42.6504V43.3729H42.7799L44.3803 39.9709H55.128L56.7676 43.3724ZM46.558 34.4022L49.755 27.0675L52.995 34.4033L46.558 34.4022Z" fill="#FF9500"/>
<path d="M35.0455 16.4395L31.742 23.4577L28.2773 31.013H27.8436L22.7796 16.8858H19.369L14.305 31.013H13.8713L10.4061 23.4577L7.10313 16.4395H0V17.2501L12.432 43.6467H16.0258L20.8673 31.1341H21.2807L26.1223 43.6467H29.7161L42.148 17.2501V16.4395H35.0455Z" fill="#FF9500"/>
<path d="M105.475 30.3994L105.385 30.2634L105.496 30.144C106.9 28.6312 107.441 27.1492 109.295 24.1417C109.979 23.0125 110.999 22.1242 112.213 21.6009L109.307 16.5302C108.108 16.8498 106.986 17.4082 106.009 18.172C105.032 18.9357 104.221 19.889 103.623 20.9741C101.683 24.3371 101.29 26.0172 99.9367 26.6792C99.0046 27.1525 97.3716 27.1409 96.1752 27.1327H95.5549V16.418H88.6504V43.3743H95.5543V32.9319H95.7624C96.9146 32.9537 98.0672 32.9151 99.2154 32.8164L99.3539 32.7966L99.4246 32.9182L105.486 43.3743H113.44V42.5895C111.87 40.2418 110.315 37.8441 108.811 35.5251C107.705 33.8132 106.592 32.1046 105.475 30.3994Z" fill="#FF9500"/>
<path d="M138.81 16.418H131.378L126.297 25.49H125.731L120.648 16.418H113.138V17.2099L122.542 32.6942V43.3759H129.447V32.6931L129.477 32.6436L138.81 17.2099V16.418Z" fill="#FF9500"/>
<path d="M85.0492 52.6001C84.5873 52.6004 84.1384 52.447 83.7738 52.1642C82.717 51.3464 57.8955 31.9405 58.5671 14.3842C58.875 6.31822 65.2447 0 73.0697 0C76.9154 0.00378703 80.6025 1.5287 83.322 4.24014C86.0415 6.95159 87.5713 10.6281 87.5756 14.4629C87.5756 23.3572 81.1695 30.2147 78.4146 32.7495C78.2141 32.938 77.9782 33.085 77.7204 33.1819C77.4626 33.2789 77.1881 33.3239 76.9127 33.3144C76.6374 33.3048 76.3667 33.2409 76.1162 33.1264C75.8658 33.0118 75.6406 32.8489 75.4537 32.647C75.2669 32.4452 75.122 32.2083 75.0275 31.9502C74.933 31.6922 74.8908 31.418 74.9033 31.1435C74.9158 30.869 74.9827 30.5998 75.1002 30.3513C75.2177 30.1028 75.3835 29.88 75.5879 29.6958C77.4223 28.0068 83.4079 21.9187 83.4079 14.4629C83.4047 11.7303 82.3146 9.11043 80.3768 7.17818C78.439 5.24594 75.8118 4.15907 73.0714 4.15601C67.4975 4.15601 62.9561 8.71815 62.7337 14.5422C62.1443 29.9693 86.0889 48.6928 86.3306 48.8821C86.6739 49.1478 86.9253 49.5139 87.0497 49.9291C87.174 50.3443 87.1651 50.7879 87.0241 51.1978C86.8832 51.6077 86.6172 51.9634 86.2635 52.2152C85.9097 52.4669 85.486 52.602 85.0514 52.6017L85.0492 52.6001Z" fill="#382F83"/>
<path d="M73.3141 20.7135C76.5372 20.7135 79.1501 18.1079 79.1501 14.8938C79.1501 11.6798 76.5372 9.07422 73.3141 9.07422C70.0909 9.07422 67.478 11.6798 67.478 14.8938C67.478 18.1079 70.0909 20.7135 73.3141 20.7135Z" fill="#382F83"/>
<path d="M55.9459 52.8562C55.4878 52.8562 55.0424 52.7056 54.6787 52.4277C54.315 52.1499 54.0532 51.7603 53.9338 51.3192C53.8144 50.8781 53.8441 50.4101 54.0183 49.9875C54.1925 49.5649 54.5014 49.2113 54.8974 48.9814C58.8641 46.6794 62.4557 43.7878 65.5485 40.4064C65.9076 39.9933 66.4154 39.738 66.962 39.6957C67.5085 39.6534 68.0498 39.8276 68.4684 40.1805C68.8871 40.5334 69.1494 41.0366 69.1986 41.5811C69.2478 42.1255 69.0798 42.6674 68.7311 43.0892C65.3396 46.843 61.3794 50.0439 56.9945 52.5756C56.6762 52.7603 56.3142 52.8572 55.9459 52.8562Z" fill="#382F83"/>
<path d="M92.2885 46.314C89.378 46.9128 88.5005 50.4601 81.8913 49.6369L80.1523 52.8287H99.544C99.544 52.8287 98.2642 45.0841 92.2885 46.314Z" fill="#382F83"/>
<path d="M65.5971 47.892C64.0308 48.1534 62.2191 49.948 59.9321 50.2583C58.3532 50.473 56.8157 50.4543 53.8339 49.9474L52.1353 53H70.8084C70.8084 53 70.3614 47.0973 65.5971 47.892Z" fill="#382F83"/>
</svg>
