<svg width="25" height="25" viewBox="0 0 25 25" fill="none" xmlns="http://www.w3.org/2000/svg">
<path d="M16.5625 21.25H17.8125V16.25H16.5625V21.25ZM19.6875 21.25H20.9375V16.25H19.6875V21.25ZM3.75 7.5H18.75V5H3.75V7.5ZM18.75 25C17.0208 25 15.5469 24.3906 14.3281 23.1719C13.1094 21.9531 12.5 20.4792 12.5 18.75C12.5 17.0208 13.1094 15.5469 14.3281 14.3281C15.5469 13.1094 17.0208 12.5 18.75 12.5C20.4792 12.5 21.9531 13.1094 23.1719 14.3281C24.3906 15.5469 25 17.0208 25 18.75C25 20.4792 24.3906 21.9531 23.1719 23.1719C21.9531 24.3906 20.4792 25 18.75 25ZM0 23.75V2.5C0 1.8125 0.244792 1.22396 0.734375 0.734375C1.22396 0.244792 1.8125 0 2.5 0H20C20.6875 0 21.276 0.244792 21.7656 0.734375C22.2552 1.22396 22.5 1.8125 22.5 2.5V10.8438C22.1042 10.6562 21.6979 10.5 21.2812 10.375C20.8646 10.25 20.4375 10.1562 20 10.0938V2.5H2.5V20.0625H10.0938C10.1979 20.7083 10.3594 21.3229 10.5781 21.9062C10.7969 22.4896 11.0833 23.0417 11.4375 23.5625L11.25 23.75L9.375 21.875L7.5 23.75L5.625 21.875L3.75 23.75L1.875 21.875L0 23.75ZM3.75 17.5H10.0938C10.1562 17.0625 10.25 16.6354 10.375 16.2188C10.5 15.8021 10.6562 15.3958 10.8438 15H3.75V17.5ZM3.75 12.5H12.625C13.4167 11.7292 14.3385 11.1198 15.3906 10.6719C16.4427 10.224 17.5625 10 18.75 10H3.75V12.5Z" fill="currentColor"/>
</svg>
