<svg width="30" height="30" viewBox="0 0 30 30" fill="none" xmlns="http://www.w3.org/2000/svg">
<mask id="mask0_1717_66687" style="mask-type:alpha" maskUnits="userSpaceOnUse" x="0" y="0" width="30" height="30">
<rect width="30" height="30" fill="#D9D9D9"/>
</mask>
<g mask="url(#mask0_1717_66687)">
<path d="M22.5 16.5625L25 19.0625V25C25 25.6875 24.7552 26.276 24.2656 26.7656C23.776 27.2552 23.1875 27.5 22.5 27.5H5C4.3125 27.5 3.72396 27.2552 3.23438 26.7656C2.74479 26.276 2.5 25.6875 2.5 25V7.5C2.5 6.8125 2.74479 6.22396 3.23438 5.73438C3.72396 5.24479 4.3125 5 5 5H11.875C11.7083 5.375 11.5833 5.77604 11.5 6.20312C11.4167 6.63021 11.3542 7.0625 11.3125 7.5H5V25H22.5V16.5625ZM24.125 11.125L28.125 15.125L26.375 16.875L22.375 12.875C21.9375 13.125 21.4688 13.3333 20.9688 13.5C20.4688 13.6667 19.9375 13.75 19.375 13.75C17.8125 13.75 16.4844 13.2031 15.3906 12.1094C14.2969 11.0156 13.75 9.6875 13.75 8.125C13.75 6.5625 14.2969 5.23438 15.3906 4.14062C16.4844 3.04688 17.8125 2.5 19.375 2.5C20.9375 2.5 22.2656 3.04688 23.3594 4.14062C24.4531 5.23438 25 6.5625 25 8.125C25 8.6875 24.9167 9.21875 24.75 9.71875C24.5833 10.2188 24.375 10.6875 24.125 11.125ZM19.375 11.25C20.25 11.25 20.9896 10.9479 21.5938 10.3438C22.1979 9.73958 22.5 9 22.5 8.125C22.5 7.25 22.1979 6.51042 21.5938 5.90625C20.9896 5.30208 20.25 5 19.375 5C18.5 5 17.7604 5.30208 17.1562 5.90625C16.5521 6.51042 16.25 7.25 16.25 8.125C16.25 9 16.5521 9.73958 17.1562 10.3438C17.7604 10.9479 18.5 11.25 19.375 11.25ZM5 25V7.5V16.25V15.875V25Z" fill="currentColor"/>
</g>
</svg>
