<svg width="131" height="282" viewBox="0 0 131 282" fill="none" xmlns="http://www.w3.org/2000/svg">
<path d="M0 76.4169C0 66.7703 7.82009 58.9502 17.4667 58.9502V58.9502C27.1132 58.9502 34.9333 66.7703 34.9333 76.4169V281.65H0V76.4169Z" fill="url(#paint0_linear_1982_52428)" fill-opacity="0.05"/>
<path d="M48.0332 17.4667C48.0332 7.82008 55.8533 0 65.4999 0V0C75.1464 0 82.9665 7.82009 82.9665 17.4667V281.65H48.0332V17.4667Z" fill="url(#paint1_linear_1982_52428)" fill-opacity="0.05"/>
<path fill-rule="evenodd" clip-rule="evenodd" d="M96.0664 148.467C96.0664 138.82 103.886 131 113.533 131C123.18 131 131 138.82 131 148.467V281.65H96.0664V148.467Z" fill="url(#paint2_linear_1982_52428)" fill-opacity="0.05"/>
<rect x="31.5" y="94.2783" width="73" height="71.4429" rx="35.7215" fill="#EBF1FF"/>
<mask id="mask0_1982_52428" style="mask-type:alpha" maskUnits="userSpaceOnUse" x="51" y="114" width="32" height="32">
<rect x="51.5" y="114.278" width="31.4429" height="31.4429" fill="#D9D9D9"/>
</mask>
<g mask="url(#mask0_1982_52428)">
<path d="M57.7998 118.459V139.421H78.7617V141.541H58.0498C57.3961 141.541 56.8426 141.311 56.376 140.845C55.9094 140.378 55.6797 139.825 55.6797 139.171V118.459H57.7998ZM77.4521 131.561V137.61H72.7109V131.561H77.4521ZM70.9014 119.77V137.61H66.1611V119.77H70.9014ZM64.3506 126.319V137.61H59.6104V126.319H64.3506Z" fill="#546FD9" stroke="#EBF1FF" stroke-width="0.5"/>
</g>
<defs>
<linearGradient id="paint0_linear_1982_52428" x1="15.6338" y1="170" x2="19.8226" y2="281.494" gradientUnits="userSpaceOnUse">
<stop stop-color="#546FD9"/>
<stop offset="0.586538" stop-color="#546FD9" stop-opacity="0.5"/>
<stop offset="1" stop-color="white" stop-opacity="0"/>
</linearGradient>
<linearGradient id="paint1_linear_1982_52428" x1="63.667" y1="140.445" x2="70.3613" y2="281.333" gradientUnits="userSpaceOnUse">
<stop stop-color="#546FD9"/>
<stop offset="0.586538" stop-color="#546FD9" stop-opacity="0.5"/>
<stop offset="1" stop-color="white" stop-opacity="0"/>
</linearGradient>
<linearGradient id="paint2_linear_1982_52428" x1="111.7" y1="206.122" x2="113.619" y2="281.602" gradientUnits="userSpaceOnUse">
<stop stop-color="#546FD9"/>
<stop offset="0.586538" stop-color="#546FD9" stop-opacity="0.5"/>
<stop offset="1" stop-color="white" stop-opacity="0"/>
</linearGradient>
</defs>
</svg>
