<svg width="163" height="163" viewBox="0 0 163 163" fill="none" xmlns="http://www.w3.org/2000/svg">
<path d="M152 81C156.418 81 160.042 77.4091 159.593 73.0137C158.435 61.691 154.824 50.7218 148.975 40.8838C141.76 28.7466 131.404 18.7805 118.998 12.0354C106.593 5.29036 92.5988 2.01615 78.4889 2.55777C64.3791 3.09939 50.6766 7.43678 38.8251 15.1129C26.9737 22.7891 17.4121 33.5198 11.1478 46.1744C4.88355 58.8291 2.14856 72.9391 3.231 87.0177C4.31344 101.096 9.17323 114.622 17.2983 126.171C23.8843 135.531 32.418 143.312 42.2772 148.999C46.1044 151.206 50.8633 149.368 52.6701 145.336L60.2768 128.361C62.0836 124.329 60.223 119.651 56.5853 117.144C52.3246 114.207 48.5991 110.527 45.5972 106.26C41.0535 99.8023 38.3358 92.2383 37.7305 84.3652C37.1251 76.4922 38.6546 68.6016 42.1577 61.5249C45.6608 54.4482 51.0078 48.4473 57.6354 44.1547C64.2629 39.862 71.9257 37.4365 79.8161 37.1336C87.7066 36.8307 95.5327 38.6617 102.47 42.4337C109.407 46.2056 115.198 51.7789 119.234 58.5662C121.9 63.0505 123.734 67.9549 124.672 73.0441C125.473 77.3892 128.98 81 133.399 81H152Z" fill="url(#paint0_linear_1982_52407)" fill-opacity="0.05"/>
<path d="M56.0195 146.734C54.4226 150.854 56.461 155.531 60.7217 156.7C69.9799 159.242 79.6486 160.069 89.2474 159.117C101.507 157.901 113.308 153.817 123.696 147.195C134.084 140.573 142.768 131.599 149.046 120.999C153.96 112.699 157.292 103.585 158.896 94.119C159.635 89.7629 156.255 85.9408 151.847 85.6494L133.286 84.4228C128.877 84.1314 125.139 87.503 124.053 91.7858C123.025 95.8421 121.419 99.744 119.273 103.368C115.763 109.296 110.906 114.315 105.097 118.018C99.2876 121.721 92.6882 124.005 85.8326 124.685C81.6412 125.1 77.4259 124.909 73.3148 124.129C68.974 123.305 64.3394 125.271 62.7425 129.391L56.0195 146.734Z" fill="url(#paint1_linear_1982_52407)" fill-opacity="0.05"/>
<rect x="44.5" y="45" width="73" height="71.4429" rx="35.7215" fill="#EBF1FF"/>
<mask id="mask0_1982_52407" style="mask-type:alpha" maskUnits="userSpaceOnUse" x="64" y="65" width="32" height="32">
<rect x="64.5" y="65" width="31.4429" height="31.4429" fill="#D9D9D9"/>
</mask>
<g mask="url(#mask0_1982_52407)">
<path d="M70.7998 69.1807V90.1426H91.7617V92.2627H71.0498C70.3961 92.2627 69.8426 92.033 69.376 91.5664C68.9094 91.0998 68.6797 90.5463 68.6797 89.8926V69.1807H70.7998ZM90.4521 82.2822V88.332H85.7109V82.2822H90.4521ZM83.9014 70.4912V88.332H79.1611V70.4912H83.9014ZM77.3506 77.041V88.332H72.6104V77.041H77.3506Z" fill="#546FD9" stroke="#EBF1FF" stroke-width="0.5"/>
</g>
<defs>
<linearGradient id="paint0_linear_1982_52407" x1="73.2627" y1="80.7884" x2="73.7265" y2="159.498" gradientUnits="userSpaceOnUse">
<stop stop-color="#546FD9"/>
<stop offset="0.586538" stop-color="#546FD9" stop-opacity="0.5"/>
<stop offset="1" stop-color="white" stop-opacity="0"/>
</linearGradient>
<linearGradient id="paint1_linear_1982_52407" x1="83.9256" y1="88.8753" x2="158.38" y2="63.3437" gradientUnits="userSpaceOnUse">
<stop stop-color="#546FD9"/>
<stop offset="0.586538" stop-color="#546FD9" stop-opacity="0.5"/>
<stop offset="1" stop-color="white" stop-opacity="0"/>
</linearGradient>
</defs>
</svg>
