<svg width="48" height="49" viewBox="0 0 48 49" fill="none" xmlns="http://www.w3.org/2000/svg">
<path d="M24.5077 43.7423C24.5077 43.7423 4.86812 28.5838 5.36929 15.5187C5.44213 10.1959 9.38906 5.86051 15.1086 5.82582C17.3214 5.82177 19.4694 6.5722 21.1983 7.95328C21.1983 7.95328 27.4721 12.59 23.2404 21.9919C22.0918 24.567 20.3632 26.8415 18.1899 28.6379" stroke="currentColor" stroke-width="2.27407" stroke-miterlimit="10" stroke-linecap="round"/>
<path d="M10.3535 36.3259C7.92774 39.5044 4.91892 42.1919 1.48779 44.2448" stroke="currentColor" stroke-width="2.27407" stroke-miterlimit="10" stroke-linecap="round"/>
<path d="M23.4503 43.0608L22.6328 44.4849" stroke="currentColor" stroke-width="2.27407" stroke-miterlimit="10" stroke-linecap="round"/>
<path d="M16.2709 44.339C16.2709 44.339 15.9179 39.679 12.1488 40.3061C11.2193 40.4611 10.1816 41.2963 8.95801 41.8082" stroke="currentColor" stroke-width="2.27407" stroke-miterlimit="10" stroke-linecap="round"/>
<path d="M22.5664 44.6794H32.0664" stroke="currentColor" stroke-width="2.07833" stroke-miterlimit="10" stroke-linecap="round"/>
<path d="M16.2742 44.3389H1.2998" stroke="currentColor" stroke-width="2.27407" stroke-miterlimit="10" stroke-linecap="round"/>
<path d="M15.4619 20.9357C18.0116 20.9357 20.0785 18.8788 20.0785 16.3415C20.0785 13.8043 18.0116 11.7474 15.4619 11.7474C12.9122 11.7474 10.8452 13.8043 10.8452 16.3415C10.8452 18.8788 12.9122 20.9357 15.4619 20.9357Z" stroke="currentColor" stroke-width="2.27407" stroke-miterlimit="10" stroke-linecap="round"/>
<path d="M32.3129 43.6858C32.3129 43.6858 32.0081 39.663 28.7545 40.2043C27.9521 40.3381 27.0563 41.0591 26 41.501" stroke="currentColor" stroke-width="2.15814" stroke-miterlimit="10" stroke-linecap="round"/>
<path d="M24.5077 43.7423C24.5077 43.7423 4.86812 28.5838 5.36929 15.5187C5.44213 10.1959 9.38906 5.86051 15.1086 5.82582C17.3214 5.82177 19.4694 6.5722 21.1983 7.95328C21.1983 7.95328 27.4721 12.59 23.2404 21.9919C22.0918 24.567 20.3632 26.8415 18.1899 28.6379" stroke="currentColor" stroke-width="2.5" stroke-miterlimit="10" stroke-linecap="round"/>
<path d="M10.3535 36.3259C7.92774 39.5044 4.91892 42.1919 1.48779 44.2448" stroke="currentColor" stroke-width="2.5" stroke-miterlimit="10" stroke-linecap="round"/>
<path d="M23.4503 43.0608L22.6328 44.4849" stroke="currentColor" stroke-width="2.27407" stroke-miterlimit="10" stroke-linecap="round"/>
<path d="M16.2709 44.339C16.2709 44.339 15.9179 39.679 12.1488 40.3061C11.2193 40.4611 10.1816 41.2963 8.95801 41.8082" stroke="currentColor" stroke-width="2.5" stroke-miterlimit="10" stroke-linecap="round"/>
<path d="M16.2742 44.3389H1.2998" stroke="currentColor" stroke-width="2.5" stroke-miterlimit="10" stroke-linecap="round"/>
<path d="M15.4619 20.9357C18.0116 20.9357 20.0785 18.8788 20.0785 16.3415C20.0785 13.8043 18.0116 11.7474 15.4619 11.7474C12.9122 11.7474 10.8452 13.8043 10.8452 16.3415C10.8452 18.8788 12.9122 20.9357 15.4619 20.9357Z" stroke="currentColor" stroke-width="2.5" stroke-miterlimit="10" stroke-linecap="round"/>
<path d="M42.4963 44.1715C42.4963 44.1715 32.5139 36.4244 32.7685 29.7468C32.7597 29.0941 32.8819 28.4462 33.1276 27.8414C33.3733 27.2366 33.7377 26.6872 34.1993 26.2255C34.6608 25.7639 35.2101 25.3993 35.8148 25.1534C36.4196 24.9075 37.0674 24.7852 37.7202 24.7938C38.8459 24.792 39.9383 25.1757 40.8156 25.8811C40.8156 25.8811 44.0044 28.2506 41.8537 33.0559C41.271 34.3706 40.3927 35.5329 39.2871 36.4524" stroke="currentColor" stroke-width="2" stroke-miterlimit="10" stroke-linecap="round"/>
<path d="M35.184 39.9083C34.7898 40.2742 33.6967 40.9586 33.1135 41.2289" stroke="currentColor" stroke-width="1.74615" stroke-miterlimit="10" stroke-linecap="round"/>
<path d="M47.11 44.549C47.11 44.549 46.3657 41.7899 45.0422 42.2838C44.5029 42.485 43.9539 42.974 43.0386 43.1134" stroke="currentColor" stroke-width="1.5" stroke-miterlimit="10" stroke-linecap="round"/>
<path d="M38.3095 44.1871C38.3095 44.1871 38.1642 42.1682 36.6139 42.4401C36.2324 42.5074 35.8047 42.8691 35.3008 43.0908" stroke="currentColor" stroke-width="1.5" stroke-miterlimit="10" stroke-linecap="round"/>
<path d="M41 44.5511L47.0892 44.6298" stroke="currentColor" stroke-width="1.58609" stroke-miterlimit="10" stroke-linecap="round"/>
<path d="M38.3109 44.4742H30.6997" stroke="currentColor" stroke-width="1.70555" stroke-miterlimit="10" stroke-linecap="round"/>
<path d="M37.6801 32.4934C38.9762 32.4934 40.0268 31.4479 40.0268 30.1582C40.0268 28.8685 38.9762 27.823 37.6801 27.823C36.3841 27.823 35.3335 28.8685 35.3335 30.1582C35.3335 31.4479 36.3841 32.4934 37.6801 32.4934Z" stroke="currentColor" stroke-width="1.8" stroke-miterlimit="10" stroke-linecap="round"/>
<path d="M36.842 23.9907C36.8088 24.0017 36.7743 24.0083 36.7394 24.0104C36.5348 24.0207 34.6879 24.0849 33.8408 23.6397C33.6449 23.5413 33.4753 23.3976 33.3461 23.2206C33.2169 23.0435 33.1318 22.8382 33.0978 22.6217C33.0759 22.383 33.1063 22.1424 33.1869 21.9167C33.2675 21.691 33.3963 21.4856 33.5645 21.3149C33.924 20.9334 34.3966 20.6778 34.9126 20.5857C35.4285 20.4937 35.9604 20.5701 36.4296 20.8036L36.4435 20.8094C37.403 21.3872 38.2218 23.0134 38.2647 23.0787C38.278 23.1167 38.2835 23.1571 38.2809 23.1973C38.2783 23.2375 38.2676 23.2767 38.2494 23.3127C38.2313 23.3487 38.2061 23.3806 38.1753 23.4066C38.1445 23.4326 38.1088 23.4521 38.0703 23.4639C37.9948 23.5037 37.9072 23.5141 37.8246 23.493C37.7419 23.4719 37.6701 23.4208 37.6229 23.3497C37.6178 23.3317 36.8324 21.7832 36.0061 21.2833C35.6965 21.1289 35.3454 21.0784 35.0048 21.1393C34.6643 21.2003 34.3525 21.3695 34.1158 21.6219C34.0042 21.7366 33.9187 21.8741 33.8651 22.0249C33.8116 22.1758 33.7914 22.3365 33.8058 22.4959C33.8245 22.6357 33.877 22.7687 33.9588 22.8836C34.0406 22.9985 34.1492 23.0917 34.2751 23.1551C34.8517 23.4646 36.2804 23.472 36.7869 23.4527C36.9801 23.4456 37.1225 23.5599 37.1073 23.7195C37.0942 23.7856 37.0621 23.8464 37.015 23.8946C36.9679 23.9428 36.9078 23.9762 36.842 23.9907Z" fill="currentColor" stroke="currentColor" stroke-width="0.5"/>
<path d="M39.2099 23.9471C39.1407 23.937 39.0759 23.9068 39.0238 23.8602C38.9717 23.8135 38.9345 23.7525 38.9168 23.6848C38.9132 23.6449 38.9186 23.6046 38.9328 23.567C38.9469 23.5295 38.9693 23.4956 38.9983 23.4679C39.0273 23.4402 39.0622 23.4194 39.1004 23.4071C39.1386 23.3947 39.1791 23.3912 39.2188 23.3966C39.7274 23.3811 41.1587 23.2774 41.7133 22.927C41.8362 22.8569 41.9394 22.7569 42.0135 22.6363C42.0875 22.5157 42.13 22.3784 42.1369 22.2371C42.1419 22.0777 42.1109 21.9192 42.046 21.7735C41.9812 21.6277 41.8842 21.4985 41.7625 21.3955C41.5012 21.1566 41.1693 21.0092 40.8169 20.9753C40.4783 20.9325 40.1352 21.0075 39.8453 21.1878C39.0535 21.7434 38.3763 23.3423 38.3724 23.3606C38.3298 23.4347 38.2613 23.4904 38.1801 23.5171C38.099 23.5438 38.0108 23.5396 37.9325 23.5053C37.7522 23.4478 37.6452 23.2726 37.7107 23.1344C37.7377 23.0639 38.4552 21.3878 39.3606 20.7514L39.376 20.7355C39.8157 20.4594 40.3378 20.3448 40.8528 20.4115C41.3849 20.4656 41.8857 20.6889 42.2816 21.0486C42.4623 21.2055 42.6055 21.401 42.7004 21.6207C42.7953 21.8404 42.8396 22.0787 42.8299 22.3178C42.8126 22.5368 42.7424 22.7482 42.6253 22.934C42.5082 23.1198 42.3477 23.2745 42.1577 23.3846C41.3398 23.8963 39.4979 23.9534 39.2812 23.9538C39.2572 23.9542 39.2333 23.952 39.2099 23.9471Z" fill="currentColor" stroke="currentColor" stroke-width="0.5"/>
<path d="M37.7019 24.7926H37.3138C37.2063 24.7926 37.1206 24.5113 37.1206 24.1683V23.5856C37.1206 23.2388 37.208 22.9613 37.3138 22.9613H38.6182C38.7258 22.9613 38.8114 23.2426 38.8114 23.5856V24.1714C38.8114 24.5182 38.724 24.7957 38.6182 24.7957H38.2214C38.1972 24.7957 38.1785 24.7357 38.1785 24.6569C38.1785 24.5782 38.1972 24.5182 38.2214 24.5182H38.6182C38.6769 24.5182 38.7258 24.3615 38.7258 24.1676V23.5818C38.7258 23.3928 38.6772 23.235 38.6168 23.235H37.3124C37.2538 23.235 37.2049 23.3917 37.2049 23.5856V24.1714C37.2049 24.3604 37.2534 24.5182 37.3138 24.5182H37.7019C37.7262 24.5182 37.7449 24.5782 37.7449 24.6569C37.7449 24.7357 37.7262 24.7926 37.7019 24.7926Z" fill="currentColor" stroke="currentColor" stroke-width="0.568518"/>
</svg>
