<svg width="48" height="49" viewBox="0 0 48 49" fill="none" xmlns="http://www.w3.org/2000/svg">
<path d="M23.9355 11.514C26.4559 11.5141 28.8731 12.5151 30.6553 14.2972C32.4376 16.0796 33.4395 18.4974 33.4395 21.0179C33.4393 21.2819 33.3341 21.5354 33.1475 21.722C32.9608 21.9086 32.7073 22.0131 32.4434 22.0131C32.1794 22.0131 31.926 21.9086 31.7393 21.722C31.5526 21.5354 31.4474 21.2819 31.4473 21.0179C31.4473 20.0315 31.2534 19.0543 30.876 18.1429C30.4984 17.2315 29.9447 16.403 29.2471 15.7054C28.5495 15.0079 27.721 14.4541 26.8096 14.0765C25.8984 13.6992 24.9218 13.5053 23.9355 13.5052C22.9491 13.5052 21.9719 13.6991 21.0605 14.0765C20.1491 14.4541 19.3206 15.0078 18.623 15.7054C17.9254 16.403 17.3717 17.2315 16.9941 18.1429C16.6167 19.0543 16.4229 20.0315 16.4229 21.0179V21.3822C16.4062 21.639 16.2962 21.8819 16.1143 22.0638C15.9547 22.2233 15.7487 22.3264 15.5273 22.3607V22.3724L15.4287 22.3734C15.1795 22.3777 14.938 22.2874 14.7529 22.1205C14.5679 21.9535 14.4529 21.7224 14.4316 21.474L14.4307 21.4652H14.4316V21.0179C14.4316 18.4974 15.4325 16.0796 17.2148 14.2972C18.9972 12.5149 21.415 11.514 23.9355 11.514Z" fill="currentColor" stroke="currentColor" stroke-width="0.2"/>
<path d="M15.8809 22.4523C16.0149 22.4584 16.1464 22.4914 16.2676 22.549C16.3887 22.6065 16.4976 22.6872 16.5869 22.7872C16.6538 22.8623 16.7092 22.9471 16.751 23.0382L16.7881 23.132L16.7891 23.1339C17.2688 24.6328 18.2073 25.9433 19.4727 26.879C20.7381 27.8148 22.2661 28.3282 23.8398 28.3478C25.4136 28.3674 26.9539 27.8915 28.2422 26.9874C29.5304 26.0834 30.5017 24.7972 31.0186 23.3107C31.062 23.1839 31.1305 23.067 31.2197 22.9669C31.309 22.8669 31.417 22.7853 31.5381 22.7277C31.6593 22.67 31.7917 22.6371 31.9258 22.631C32.0597 22.625 32.1935 22.6461 32.3193 22.6925C32.4451 22.7389 32.5602 22.81 32.6582 22.9015C32.7562 22.9931 32.8358 23.1033 32.8906 23.2257C32.9454 23.3482 32.9746 23.4812 32.9775 23.6154C32.9804 23.7495 32.9566 23.8832 32.9072 24.0079C32.2496 25.8651 31.0387 27.4761 29.4375 28.6241C27.8353 29.7729 25.9195 30.4027 23.9482 30.4288H23.9473C21.9303 30.4409 19.9621 29.8057 18.333 28.6163C16.704 27.427 15.4994 25.7462 14.8965 23.8214L14.8975 23.8204C14.85 23.6978 14.8262 23.5672 14.8291 23.4357C14.832 23.3016 14.8613 23.1694 14.916 23.047C14.9708 22.9245 15.0494 22.8135 15.1475 22.7218C15.2455 22.6301 15.3614 22.5592 15.4873 22.5128C15.6131 22.4665 15.7469 22.4462 15.8809 22.4523Z" fill="currentColor" stroke="currentColor" stroke-width="0.2"/>
<path d="M23.8574 31.2174C26.3481 31.2174 28.7711 32.0284 30.7598 33.528C32.746 35.0258 34.191 37.1291 34.877 39.5201C34.9257 39.6456 34.9451 39.7805 34.9346 39.9147C34.924 40.0489 34.8833 40.1792 34.8154 40.2955C34.7476 40.4118 34.6546 40.5113 34.543 40.5865C34.4355 40.6591 34.3134 40.7064 34.1855 40.7272L34.0908 40.7506C33.9951 40.769 33.897 40.7728 33.7998 40.7614C33.6703 40.7461 33.5453 40.704 33.4326 40.6383C33.3199 40.5725 33.2216 40.4838 33.1445 40.3785C33.0686 40.2748 33.0143 40.157 32.9854 40.0319C32.404 38.0618 31.2008 36.333 29.5557 35.1031C27.9104 33.8732 25.9116 33.2077 23.8574 33.2076C21.8031 33.2076 19.8035 33.8731 18.1582 35.1031C16.513 36.3332 15.3098 38.0626 14.7285 40.0328L14.7275 40.0319C14.6874 40.2373 14.5757 40.4219 14.4102 40.5504C14.2438 40.6796 14.0362 40.7419 13.8262 40.7291V40.7301H13.54L13.5234 40.7242C13.2882 40.6384 13.09 40.4728 12.9639 40.2565C12.8379 40.0402 12.7918 39.7865 12.833 39.5397L12.835 39.5289L12.9727 39.0836C13.7032 36.8734 15.0906 34.9339 16.9551 33.528C18.9438 32.0283 21.3667 31.2174 23.8574 31.2174Z" fill="currentColor" stroke="currentColor" stroke-width="0.2"/>
<path d="M27.6016 14.6593C27.8621 14.5849 28.142 14.6167 28.3789 14.7482C28.6159 14.8798 28.7908 15.1008 28.8652 15.3615C28.9396 15.6221 28.908 15.9019 28.7764 16.1388L28.7725 16.1456C28.5867 16.4249 24.7985 22.7286 14.8965 22.7286H14.0908C13.8268 22.7286 13.5734 22.6233 13.3867 22.4366C13.2 22.2499 13.0957 21.9966 13.0957 21.7325C13.0957 21.4685 13.2001 21.2152 13.3867 21.0284C13.5734 20.8418 13.8268 20.7365 14.0908 20.7365H14.0938C18.773 20.8701 21.9762 19.489 24.0195 18.0675C25.0418 17.3563 25.7753 16.6342 26.2578 16.0851C26.4988 15.8107 26.677 15.5793 26.7979 15.4142C26.8583 15.3316 26.905 15.2659 26.9375 15.2189C26.9534 15.1958 26.9669 15.1761 26.9766 15.1622C26.9814 15.1552 26.9854 15.148 26.9893 15.1427C26.9904 15.1411 26.9927 15.1389 26.9951 15.1359C27.1273 14.904 27.3447 14.7328 27.6016 14.6593Z" fill="currentColor" stroke="currentColor" stroke-width="0.2"/>
<path d="M24.0176 8.73315C25.2953 8.66826 26.5499 9.09694 27.5205 9.93042C28.4304 10.7119 29.026 11.7934 29.2031 12.9744L29.2324 13.2117L29.2334 13.2205L29.2295 13.322C29.21 13.5576 29.1134 13.7815 28.9531 13.9578C28.77 14.1591 28.5173 14.2838 28.2461 14.3064H28.2344V14.3054C27.986 14.3095 27.7452 14.2206 27.5605 14.0544C27.3756 13.8881 27.2603 13.6577 27.2383 13.4099C27.1686 12.6287 26.7917 11.9066 26.1904 11.4031C25.5893 10.8999 24.8132 10.6559 24.0322 10.7244H24.0176C23.2881 10.6823 22.5691 10.9189 22.0068 11.3855C21.4448 11.8521 21.0804 12.5144 20.9873 13.239C20.984 13.4985 20.88 13.7467 20.6963 13.9304C20.5096 14.1171 20.2562 14.2214 19.9922 14.2214C19.7282 14.2214 19.4748 14.1171 19.2881 13.9304C19.1014 13.7437 18.9971 13.4903 18.9971 13.2263V13.2175L19.0234 12.9851C19.184 11.8286 19.7508 10.7637 20.626 9.98315C21.5576 9.15237 22.7698 8.70552 24.0176 8.73315Z" fill="currentColor" stroke="currentColor" stroke-width="0.2"/>
<path d="M26.9404 16.1792C27.1658 16.06 27.4292 16.0348 27.6729 16.1099C27.9161 16.1848 28.119 16.3538 28.2383 16.5786C28.5494 17.1561 29.196 18.2002 30.0283 19.0874C30.8649 19.9792 31.8676 20.6884 32.8936 20.646H32.8984C33.1624 20.6461 33.4159 20.7513 33.6025 20.938C33.789 21.1247 33.8936 21.3782 33.8936 21.6421C33.8934 21.9058 33.7889 22.1586 33.6025 22.3452C33.4555 22.4922 33.2667 22.5873 33.0645 22.6216C33.0634 22.6392 33.058 22.6575 33.0469 22.6743C33.0351 22.6919 33.0202 22.7032 33.0088 22.7095C32.9886 22.7206 32.9685 22.7231 32.96 22.7241C32.9411 22.7264 32.9167 22.7261 32.8975 22.7261C31.0166 22.7261 29.4461 21.4668 28.3438 20.1958C27.7908 19.5583 27.3511 18.9128 27.0439 18.4097C26.8903 18.158 26.7699 17.9413 26.6846 17.7788C26.6012 17.62 26.5475 17.5066 26.5332 17.4634V17.4624C26.4209 17.2405 26.3973 16.9838 26.4707 16.7456C26.5458 16.502 26.7151 16.2984 26.9404 16.1792Z" fill="currentColor" stroke="currentColor" stroke-width="0.2"/>
<path d="M9.3418 27.5535C10.7644 27.5676 12.1632 27.9196 13.4229 28.5808C14.6825 29.2421 15.7673 30.1934 16.5869 31.3562L16.5889 31.3591L16.6396 31.4451C16.686 31.533 16.7196 31.6274 16.7383 31.7253C16.7632 31.856 16.7616 31.9906 16.7344 32.1208C16.7071 32.251 16.6544 32.3745 16.5791 32.4841C16.5039 32.5938 16.4075 32.6873 16.2959 32.7595C16.1842 32.8318 16.0587 32.8814 15.9277 32.905C15.797 32.9286 15.6629 32.9266 15.5332 32.8982C15.4033 32.8696 15.2798 32.8153 15.1709 32.739C15.063 32.6634 14.9712 32.5669 14.9004 32.4558L14.6592 32.1248C14.0742 31.3705 13.3327 30.7489 12.4844 30.3044C11.5152 29.7968 10.4359 29.5357 9.3418 29.5437C7.87947 29.5582 6.45899 30.0358 5.28516 30.908C4.11145 31.7801 3.24444 33.0024 2.80859 34.3982C2.75239 34.594 2.63559 34.7674 2.47461 34.8923C2.31285 35.0179 2.11485 35.0882 1.91016 35.0935H1.62109L1.60449 35.0876C1.36989 35.0019 1.17293 34.8365 1.04688 34.6208C0.920829 34.4052 0.873664 34.1525 0.914062 33.906L0.916016 33.8933H0.916992C1.453 32.0716 2.56197 30.4709 4.0791 29.3289C5.59623 28.1869 7.441 27.5646 9.33984 27.5535H9.3418Z" fill="currentColor" stroke="currentColor" stroke-width="0.2"/>
<path d="M7.96582 13.2642C9.121 13.0333 10.3155 13.0902 11.4434 13.4302C12.571 13.7701 13.5976 14.3828 14.4326 15.2134L14.499 15.2847C14.5622 15.3594 14.6137 15.4434 14.6523 15.5337C14.7037 15.6539 14.7314 15.7829 14.7324 15.9136C14.7334 16.0444 14.7078 16.1744 14.6582 16.2954C14.6086 16.4163 14.5358 16.5262 14.4434 16.6187C14.3509 16.7111 14.2411 16.7849 14.1201 16.8345C13.9991 16.8841 13.8691 16.9087 13.7383 16.9077C13.6075 16.9067 13.4777 16.8801 13.3574 16.8286C13.2377 16.7774 13.1298 16.7022 13.0391 16.6089L12.8057 16.3911C12.2476 15.8989 11.5895 15.5314 10.875 15.3149C10.0584 15.0676 9.19335 15.0247 8.35645 15.1909C7.5195 15.3572 6.73629 15.7274 6.07617 16.2681C5.41613 16.8088 4.89909 17.5038 4.57129 18.2915C4.24357 19.0792 4.11467 19.9355 4.19629 20.7847C4.27795 21.634 4.56811 22.4507 5.04004 23.1616C5.51192 23.8723 6.15148 24.4559 6.90234 24.8608C7.65332 25.2658 8.4925 25.4801 9.3457 25.4839C10.6117 25.4868 11.8328 25.0161 12.7705 24.1655C12.868 24.0766 12.983 24.0085 13.1074 23.9644C13.2317 23.9203 13.3635 23.902 13.4951 23.9097C13.627 23.9174 13.7565 23.9509 13.875 24.0093C13.9934 24.0676 14.0991 24.1488 14.1855 24.2485C14.272 24.3483 14.337 24.4648 14.3779 24.5903C14.4188 24.7159 14.4349 24.8484 14.4238 24.98C14.4127 25.1116 14.3749 25.24 14.3135 25.3569C14.253 25.472 14.1692 25.5726 14.0693 25.6558L14.0703 25.6567C12.8668 26.7724 11.3046 27.4146 9.67188 27.4722L9.34473 27.4761C8.16677 27.4715 7.0079 27.1771 5.9707 26.6187C4.93347 26.0602 4.04978 25.2548 3.39746 24.2739C2.74512 23.2929 2.34427 22.1662 2.23047 20.9937C2.11667 19.8211 2.29358 18.6384 2.74512 17.5503C3.19665 16.4622 3.90882 15.5019 4.81934 14.7544C5.72989 14.0069 6.81061 13.4951 7.96582 13.2642Z" fill="currentColor" stroke="currentColor" stroke-width="0.2"/>
<path d="M35.1724 28.246C36.7017 27.5926 38.3852 27.3864 40.0269 27.6522C41.6684 27.918 43.2008 28.6445 44.4458 29.7469C45.6908 30.8495 46.5978 32.2833 47.0601 33.8807H47.0591C47.0966 34.0054 47.1085 34.1362 47.0933 34.2655C47.078 34.3951 47.036 34.5209 46.9702 34.6337C46.9045 34.7461 46.8164 34.8438 46.7114 34.9208C46.6063 34.9978 46.486 35.0522 46.3589 35.0809L46.2339 35.1093V35.0712C46.212 35.0769 46.1859 35.0829 46.1577 35.0829H46.1499C45.9406 35.0662 45.7399 34.9933 45.5679 34.8729C45.3958 34.7524 45.2587 34.5884 45.1714 34.3973L45.1655 34.3846V34.3837C44.7999 33.1582 44.0966 32.0601 43.1353 31.2167C42.1738 30.3732 40.9938 29.818 39.731 29.6151C38.468 29.4123 37.173 29.5702 35.9956 30.0702C34.8198 30.5696 33.8074 31.3896 33.0767 32.4374L33.0776 32.4384C33.0066 32.5507 32.914 32.6481 32.8052 32.7245C32.6962 32.8009 32.5728 32.8551 32.4429 32.8837C32.3129 32.9122 32.1783 32.9142 32.0474 32.8905C31.9166 32.8668 31.7918 32.8181 31.6802 32.746C31.5684 32.6737 31.4723 32.5793 31.397 32.4696C31.3217 32.3599 31.268 32.2366 31.2407 32.1063C31.2135 31.9761 31.2128 31.8415 31.2378 31.7108C31.2628 31.5802 31.3139 31.4555 31.3872 31.3446L31.3882 31.3436C32.331 29.9736 33.643 28.8994 35.1724 28.246Z" fill="currentColor" stroke="currentColor" stroke-width="0.2"/>
<path d="M36.541 13.4182C37.6708 13.0751 38.8681 13.0156 40.0264 13.2454C41.1847 13.4752 42.2693 13.9879 43.1826 14.7366C44.0958 15.4852 44.8101 16.4477 45.2627 17.5383C45.7153 18.629 45.8922 19.8142 45.7773 20.9895C45.6625 22.1649 45.2597 23.2941 44.6045 24.2766C43.9494 25.2589 43.0622 26.0646 42.0215 26.6223C40.9857 27.1773 39.8292 27.4687 38.6543 27.4729L38.6504 27.4749H38.6338C36.9962 27.4802 35.4125 26.9102 34.1562 25.8704L33.9092 25.6565C33.7188 25.4826 33.6039 25.241 33.5889 24.9836C33.5738 24.7263 33.6603 24.4734 33.8291 24.2786C33.998 24.0837 34.2362 23.9624 34.4932 23.9407C34.718 23.9217 34.9411 23.9802 35.127 24.1047L35.2051 24.1614L35.208 24.1653C36.1457 25.0159 37.3678 25.4855 38.6338 25.4827C40.0076 25.4795 41.3244 24.9325 42.2959 23.9612C43.2673 22.9898 43.8141 21.6728 43.8174 20.2991C43.8106 19.2741 43.5023 18.2739 42.9307 17.4231C42.3589 16.5722 41.5491 15.9085 40.6025 15.5149C39.6559 15.1213 38.614 15.0146 37.6074 15.2092C36.601 15.4039 35.674 15.8906 34.9424 16.6086V16.6096C34.7565 16.7898 34.5069 16.8889 34.248 16.887C33.9891 16.885 33.7407 16.782 33.5576 16.5989C33.3745 16.4158 33.2715 16.1674 33.2695 15.9084C33.2676 15.6495 33.3676 15.4 33.5479 15.2141L33.5488 15.2131C34.3836 14.378 35.4112 13.7614 36.541 13.4182Z" fill="currentColor" stroke="currentColor" stroke-width="0.2"/>
</svg>
