<svg width="30" height="30" viewBox="0 0 30 30" fill="none" xmlns="http://www.w3.org/2000/svg">
<mask id="mask0_1717_66793" style="mask-type:alpha" maskUnits="userSpaceOnUse" x="0" y="0" width="30" height="30">
<rect width="30" height="30" fill="#D9D9D9"/>
</mask>
<g mask="url(#mask0_1717_66793)">
<path d="M20.3125 25H21.5625V20H20.3125V25ZM23.4375 25H24.6875V20H23.4375V25ZM7.5 11.25H22.5V8.75H7.5V11.25ZM22.5 28.75C20.7708 28.75 19.2969 28.1406 18.0781 26.9219C16.8594 25.7031 16.25 24.2292 16.25 22.5C16.25 20.7708 16.8594 19.2969 18.0781 18.0781C19.2969 16.8594 20.7708 16.25 22.5 16.25C24.2292 16.25 25.7031 16.8594 26.9219 18.0781C28.1406 19.2969 28.75 20.7708 28.75 22.5C28.75 24.2292 28.1406 25.7031 26.9219 26.9219C25.7031 28.1406 24.2292 28.75 22.5 28.75ZM3.75 27.5V6.25C3.75 5.5625 3.99479 4.97396 4.48438 4.48438C4.97396 3.99479 5.5625 3.75 6.25 3.75H23.75C24.4375 3.75 25.026 3.99479 25.5156 4.48438C26.0052 4.97396 26.25 5.5625 26.25 6.25V14.5938C25.8542 14.4062 25.4479 14.25 25.0312 14.125C24.6146 14 24.1875 13.9062 23.75 13.8438V6.25H6.25V23.8125H13.8438C13.9479 24.4583 14.1094 25.0729 14.3281 25.6562C14.5469 26.2396 14.8333 26.7917 15.1875 27.3125L15 27.5L13.125 25.625L11.25 27.5L9.375 25.625L7.5 27.5L5.625 25.625L3.75 27.5ZM7.5 21.25H13.8438C13.9062 20.8125 14 20.3854 14.125 19.9688C14.25 19.5521 14.4062 19.1458 14.5938 18.75H7.5V21.25ZM7.5 16.25H16.375C17.1667 15.4792 18.0885 14.8698 19.1406 14.4219C20.1927 13.974 21.3125 13.75 22.5 13.75H7.5V16.25Z" fill="currentColor"/>
</g>
</svg>
