<svg width="28" height="28" viewBox="0 0 28 28" fill="none" xmlns="http://www.w3.org/2000/svg">
<path d="M18.125 27.5C15.9583 27.5 14.0469 26.8542 12.3906 25.5625C10.7344 24.2708 9.63542 22.625 9.09375 20.625C10.0312 20.6667 10.9583 20.5729 11.875 20.3438C12.7917 20.1146 13.6667 19.7917 14.5 19.375H19.625C19.6458 19.1458 19.6615 18.9219 19.6719 18.7031C19.6823 18.4844 19.6875 18.2604 19.6875 18.0312C19.6875 17.8438 19.6823 17.651 19.6719 17.4531C19.6615 17.2552 19.6458 17.0625 19.625 16.875H17.7812C18.1146 16.5 18.4219 16.1042 18.7031 15.6875C18.9844 15.2708 19.2396 14.8333 19.4688 14.375H23.875C23.4583 13.75 22.9583 13.2031 22.375 12.7344C21.7917 12.2656 21.1354 11.9062 20.4062 11.6562C20.5104 11.2396 20.5781 10.8125 20.6094 10.375C20.6406 9.9375 20.6458 9.51042 20.625 9.09375C22.625 9.63542 24.2708 10.7344 25.5625 12.3906C26.8542 14.0469 27.5 15.9583 27.5 18.125C27.5 20.7292 26.5885 22.9427 24.7656 24.7656C22.9427 26.5885 20.7292 27.5 18.125 27.5ZM15.1562 24.3125C15.0104 23.8958 14.8802 23.4896 14.7656 23.0938C14.651 22.6979 14.5521 22.2917 14.4688 21.875H12.375C12.7292 22.3958 13.1406 22.8646 13.6094 23.2812C14.0781 23.6979 14.5938 24.0417 15.1562 24.3125ZM18.125 24.75C18.375 24.2917 18.5885 23.8229 18.7656 23.3438C18.9427 22.8646 19.0938 22.375 19.2188 21.875H17.0312C17.1562 22.375 17.3125 22.8646 17.5 23.3438C17.6875 23.8229 17.8958 24.2917 18.125 24.75ZM21.0938 24.3125C21.6562 24.0417 22.1719 23.6979 22.6406 23.2812C23.1094 22.8646 23.5208 22.3958 23.875 21.875H21.7813C21.6771 22.2917 21.5729 22.6979 21.4688 23.0938C21.3646 23.4896 21.2396 23.8958 21.0938 24.3125ZM22.125 19.375H24.875C24.9167 19.1667 24.9479 18.9635 24.9688 18.7656C24.9896 18.5677 25 18.3542 25 18.125C25 17.8958 24.9896 17.6823 24.9688 17.4844C24.9479 17.2865 24.9167 17.0833 24.875 16.875H22.125C22.1458 17.0625 22.1615 17.2552 22.1719 17.4531C22.1823 17.651 22.1875 17.8438 22.1875 18.0312C22.1875 18.2604 22.1823 18.4844 22.1719 18.7031C22.1615 18.9219 22.1458 19.1458 22.125 19.375ZM9.375 18.75C6.77083 18.75 4.55729 17.8385 2.73438 16.0156C0.911458 14.1927 0 11.9792 0 9.375C0 6.77083 0.911458 4.55729 2.73438 2.73438C4.55729 0.911458 6.77083 0 9.375 0C11.9792 0 14.1927 0.911458 16.0156 2.73438C17.8385 4.55729 18.75 6.77083 18.75 9.375C18.75 11.9792 17.8385 14.1927 16.0156 16.0156C14.1927 17.8385 11.9792 18.75 9.375 18.75ZM9.375 16.25C11.2708 16.25 12.8906 15.5781 14.2344 14.2344C15.5781 12.8906 16.25 11.2708 16.25 9.375C16.25 7.47917 15.5781 5.85938 14.2344 4.51562C12.8906 3.17188 11.2708 2.5 9.375 2.5C7.47917 2.5 5.85938 3.17188 4.51562 4.51562C3.17188 5.85938 2.5 7.47917 2.5 9.375C2.5 11.2708 3.17188 12.8906 4.51562 14.2344C5.85938 15.5781 7.47917 16.25 9.375 16.25ZM6.25 8.75C6.60417 8.75 6.90104 8.63021 7.14062 8.39062C7.38021 8.15104 7.5 7.85417 7.5 7.5C7.5 7.14583 7.38021 6.84896 7.14062 6.60938C6.90104 6.36979 6.60417 6.25 6.25 6.25C5.89583 6.25 5.59896 6.36979 5.35938 6.60938C5.11979 6.84896 5 7.14583 5 7.5C5 7.85417 5.11979 8.15104 5.35938 8.39062C5.59896 8.63021 5.89583 8.75 6.25 8.75ZM9.375 14.25C10.375 14.25 11.2656 13.9688 12.0469 13.4062C12.8281 12.8438 13.3958 12.125 13.75 11.25H5C5.35417 12.125 5.92188 12.8438 6.70312 13.4062C7.48438 13.9688 8.375 14.25 9.375 14.25ZM12.5 8.75C12.8542 8.75 13.151 8.63021 13.3906 8.39062C13.6302 8.15104 13.75 7.85417 13.75 7.5C13.75 7.14583 13.6302 6.84896 13.3906 6.60938C13.151 6.36979 12.8542 6.25 12.5 6.25C12.1458 6.25 11.849 6.36979 11.6094 6.60938C11.3698 6.84896 11.25 7.14583 11.25 7.5C11.25 7.85417 11.3698 8.15104 11.6094 8.39062C11.849 8.63021 12.1458 8.75 12.5 8.75Z" fill="currentColor"/>
</svg>
