<svg width="48" height="49" viewBox="0 0 48 49" fill="none" xmlns="http://www.w3.org/2000/svg">
<path d="M19.2441 16.1173C19.3632 16.1155 19.4814 16.1363 19.5918 16.1808C19.7032 16.2258 19.8047 16.2931 19.8896 16.3781C19.9745 16.4629 20.042 16.5637 20.0869 16.6749C20.1317 16.7858 20.1533 16.905 20.1514 17.0245V41.0841C20.1537 41.2043 20.1318 41.3242 20.0869 41.4357C20.042 41.5472 19.9746 41.6485 19.8896 41.7335C19.8048 41.8184 19.704 41.8858 19.5928 41.9308C19.4822 41.9755 19.3634 41.996 19.2441 41.9943L19.2451 41.9952L19.2432 41.9943L19.2412 41.9952V41.9943C19.1222 41.9959 19.0039 41.9754 18.8936 41.9308C18.7822 41.8858 18.6806 41.8185 18.5957 41.7335C18.5109 41.6485 18.4443 41.5471 18.3994 41.4357C18.3545 41.3241 18.3326 41.2043 18.335 41.0841V17.0245C18.333 16.905 18.3547 16.7858 18.3994 16.6749C18.4444 16.5636 18.5118 16.4629 18.5967 16.3781C18.6815 16.2932 18.7823 16.2258 18.8936 16.1808C19.0038 16.1363 19.1223 16.1156 19.2412 16.1173V16.1163L19.2432 16.1173L19.2451 16.1163L19.2441 16.1173Z" fill="currentColor" stroke="currentColor" stroke-width="0.2"/>
<path d="M24.9287 16.1173C25.0477 16.1155 25.1659 16.1363 25.2764 16.1808C25.3878 16.2258 25.4893 16.2931 25.5742 16.3781C25.6591 16.4629 25.7265 16.5637 25.7715 16.6749C25.8162 16.7858 25.8379 16.905 25.8359 17.0245V41.087C25.8354 41.3277 25.7394 41.5584 25.5693 41.7286C25.3994 41.8987 25.1691 41.9934 24.9287 41.9943L24.9297 41.9952C24.8095 41.9974 24.6896 41.9758 24.5781 41.9308C24.4667 41.8858 24.3652 41.8185 24.2803 41.7335C24.1954 41.6485 24.1288 41.5471 24.084 41.4357C24.0391 41.3241 24.0172 41.2043 24.0195 41.0841V17.0245C24.0176 16.905 24.0392 16.7858 24.084 16.6749C24.1289 16.5636 24.1964 16.4629 24.2812 16.3781C24.3661 16.2932 24.4669 16.2258 24.5781 16.1808C24.6884 16.1363 24.8069 16.1156 24.9258 16.1173V16.1163L24.9277 16.1173L24.9297 16.1163L24.9287 16.1173Z" fill="currentColor" stroke="currentColor" stroke-width="0.2"/>
<path d="M13.2334 40.5298V40.5308C13.3529 40.5288 13.4721 40.5495 13.583 40.5942C13.6943 40.6392 13.795 40.7066 13.8799 40.7915C13.9648 40.8764 14.0322 40.9771 14.0771 41.0884C14.1216 41.1987 14.1433 41.3171 14.1416 41.436C14.1438 41.556 14.122 41.6753 14.0771 41.7866C14.0322 41.898 13.9648 41.9995 13.8799 42.0845C13.795 42.1693 13.6943 42.2368 13.583 42.2817C13.4721 42.3265 13.353 42.3472 13.2334 42.3452V42.3462H1.80859V42.3452C1.68924 42.3472 1.57069 42.3263 1.45996 42.2817C1.34851 42.2368 1.2471 42.1694 1.16211 42.0845C1.07713 41.9995 1.00983 41.898 0.964844 41.7866C0.919967 41.6753 0.898212 41.556 0.900391 41.436C0.898723 41.3172 0.920333 41.1987 0.964844 41.0884C1.00981 40.9771 1.07725 40.8764 1.16211 40.7915C1.24698 40.7066 1.34771 40.6392 1.45898 40.5942C1.56987 40.5495 1.68903 40.5288 1.80859 40.5308V40.5298H13.2334Z" fill="currentColor" stroke="currentColor" stroke-width="0.2"/>
<path d="M35.062 28.3242C35.1813 28.3224 35.3 28.343 35.4106 28.3877C35.5219 28.4326 35.6226 28.5001 35.7075 28.585C35.7924 28.6698 35.8598 28.7706 35.9048 28.8818C35.9495 28.9927 35.9712 29.1119 35.9692 29.2314V38.582C35.9686 39.5729 35.5751 40.5229 34.8745 41.2236C34.2175 41.8806 33.3411 42.2681 32.4175 42.3145L32.2319 42.3193H12.7427V42.3467L12.6421 42.3457C11.651 42.3451 10.7003 41.9518 9.99951 41.251C9.29874 40.5502 8.90533 39.5995 8.90479 38.6084V29.2578C8.90291 29.1385 8.92456 29.0199 8.96924 28.9092C9.01421 28.7978 9.08155 28.6963 9.1665 28.6113C9.25128 28.5266 9.35227 28.46 9.46338 28.415C9.57366 28.3705 9.69214 28.3489 9.81104 28.3506C9.81233 28.3506 9.81365 28.3496 9.81494 28.3496L9.81396 28.3506C9.93306 28.3488 10.0512 28.3705 10.1616 28.415C10.273 28.46 10.3745 28.5264 10.4595 28.6113C10.5444 28.6963 10.6118 28.7978 10.6567 28.9092C10.7014 29.0199 10.7231 29.1385 10.7212 29.2578V38.6074C10.7263 39.1199 10.9337 39.6097 11.2983 39.9697C11.6631 40.3297 12.156 40.5309 12.6685 40.5293H32.231C32.7435 40.5242 33.2332 40.3169 33.5933 39.9521C33.9533 39.5873 34.1545 39.0946 34.1528 38.582V29.2314C34.1509 29.1119 34.1726 28.9927 34.2173 28.8818C34.2622 28.7706 34.3297 28.6698 34.4146 28.585C34.4995 28.5 34.601 28.4326 34.7124 28.3877C34.8225 28.3433 34.9404 28.3226 35.0591 28.3242V28.3232L35.061 28.3242L35.063 28.3232L35.062 28.3242Z" fill="currentColor" stroke="currentColor" stroke-width="0.2"/>
<path d="M34.6011 15.9824L34.7866 15.9863C35.7102 16.0327 36.5867 16.4202 37.2437 17.0771C37.9445 17.778 38.3378 18.7286 38.3384 19.7197V23.1416C38.3378 24.1326 37.9444 25.0834 37.2437 25.7842C36.5867 26.4412 35.7102 26.8286 34.7866 26.875L34.6011 26.8799H27.1372V26.8789C27.0176 26.8809 26.8985 26.8592 26.7876 26.8145C26.6765 26.7695 26.5755 26.7029 26.4907 26.6182C26.4058 26.5332 26.3384 26.4317 26.2935 26.3203C26.2485 26.209 26.2268 26.0898 26.229 25.9697C26.2273 25.8508 26.2489 25.7324 26.2935 25.6221C26.3384 25.5108 26.4058 25.4101 26.4907 25.3252C26.5756 25.2403 26.6763 25.1729 26.7876 25.1279C26.8985 25.0832 27.0176 25.0615 27.1372 25.0635H34.6001C35.1127 25.0584 35.6023 24.8502 35.9624 24.4854C36.3225 24.1205 36.5236 23.6279 36.522 23.1152V19.6943L36.5112 19.5029C36.4631 19.0609 36.2641 18.6461 35.9448 18.3311C35.58 17.971 35.0872 17.7699 34.5747 17.7715H10.0278L9.83643 17.7832C9.39438 17.8314 8.97961 18.0304 8.66455 18.3496C8.30464 18.7144 8.10331 19.2072 8.10498 19.7197V23.1406C8.11007 23.6532 8.31824 24.1438 8.68311 24.5039C9.04794 24.8638 9.54073 25.0652 10.0532 25.0635H17.356C17.4753 25.0616 17.5939 25.0833 17.7046 25.1279C17.816 25.1729 17.9175 25.2402 18.0024 25.3252C18.0872 25.41 18.1538 25.5109 18.1987 25.6221C18.2433 25.7324 18.2659 25.8508 18.2642 25.9697L18.2612 26.0596C18.2538 26.149 18.2324 26.2368 18.1987 26.3203C18.1538 26.4317 18.0874 26.5333 18.0024 26.6182C17.9175 26.7031 17.816 26.7695 17.7046 26.8145C17.5938 26.8591 17.4753 26.8808 17.356 26.8789V26.8799H10.0532C9.0621 26.8793 8.11148 26.485 7.41064 25.7842C6.70985 25.0833 6.31646 24.1327 6.31592 23.1416V19.7197C6.31646 18.7286 6.70981 17.778 7.41064 17.0771C8.11148 16.3763 9.0621 15.983 10.0532 15.9824H34.6011Z" fill="currentColor" stroke="currentColor" stroke-width="0.2"/>
<path d="M13.6313 7.73022C14.65 6.94845 15.937 6.60238 17.2104 6.76733C18.48 6.93182 19.6328 7.59112 20.4185 8.60132L20.4448 8.62866L20.4507 8.63354L20.4546 8.6394C21.3427 9.84117 21.9796 11.7444 22.4009 13.3621C22.6121 14.173 22.77 14.9166 22.8784 15.4705C22.9326 15.747 22.9744 15.9764 23.0044 16.1433L23.0581 16.4353L23.061 16.446H23.0601C23.0923 16.682 23.0312 16.9211 22.8901 17.113C22.749 17.305 22.5391 17.4347 22.3042 17.4744H22.3032C22.1856 17.4934 22.0655 17.4886 21.9497 17.4607C21.8339 17.4328 21.7244 17.3818 21.6284 17.3113C21.5326 17.2408 21.4513 17.1516 21.3901 17.0496C21.3291 16.9475 21.2889 16.8343 21.272 16.7166L21.271 16.7097V16.7078C21.2707 16.7055 21.2707 16.7013 21.27 16.696C21.2686 16.6857 21.2661 16.6705 21.2632 16.6511C21.2574 16.6122 21.2485 16.5563 21.2368 16.4851C21.2134 16.342 21.1783 16.1374 21.1313 15.8875C21.0373 15.3871 20.8965 14.7031 20.7085 13.9578C20.3312 12.4621 19.7685 10.7347 19.0269 9.72827V9.72729C18.7841 9.41329 18.4815 9.15045 18.1372 8.95288C17.7919 8.75475 17.4109 8.62681 17.0161 8.57593C16.6214 8.52507 16.2205 8.55198 15.8364 8.65601C15.5482 8.73412 15.2732 8.85461 15.021 9.01245L14.7769 9.18237C14.1119 9.70078 13.6802 10.4619 13.5757 11.2986L13.5747 11.2996C13.5246 11.677 13.552 12.0608 13.6548 12.4275C13.7576 12.7942 13.9342 13.136 14.1733 13.4324L14.2769 13.5525C14.826 14.1496 15.8019 14.7162 16.7993 15.1833C17.8564 15.6785 18.9207 16.0537 19.4839 16.2283H19.4849C19.5994 16.2606 19.7064 16.316 19.7993 16.3904C19.8922 16.4648 19.9693 16.5572 20.0259 16.6619C20.0825 16.7666 20.1171 16.8822 20.1284 17.0007C20.1397 17.1191 20.1279 17.2388 20.0923 17.3523L20.0913 17.3542C20.0311 17.5313 19.9164 17.685 19.7642 17.7937C19.612 17.9023 19.4296 17.9611 19.2427 17.9607V17.9587C19.1519 17.963 19.0607 17.9541 18.9731 17.9294H18.9722C18.7408 17.8612 17.5914 17.5022 16.2993 16.9207C15.011 16.3408 13.5631 15.5319 12.7524 14.5564V14.5554C12.3593 14.0693 12.066 13.5101 11.8911 12.9099C11.7162 12.3097 11.6624 11.6805 11.7329 11.0593L11.7339 11.0583C11.8144 10.4059 12.0235 9.77597 12.3491 9.20483C12.6747 8.63383 13.11 8.13276 13.6304 7.7312L13.6313 7.73022Z" fill="currentColor" stroke="currentColor" stroke-width="0.2"/>
<path d="M27.1787 6.76709C28.4509 6.60473 29.7358 6.95027 30.7549 7.729L30.9463 7.8833C31.3832 8.25419 31.7518 8.69993 32.0332 9.20068C32.3547 9.77274 32.5563 10.4047 32.626 11.0571L32.6475 11.2905C32.685 11.8357 32.6268 12.3839 32.4736 12.9097C32.2985 13.5107 32.0031 14.0699 31.6064 14.5542C30.7957 15.5436 29.3554 16.3535 28.0703 16.9302C26.788 17.5056 25.6428 17.8556 25.3887 17.9263C25.3276 17.9459 25.2643 17.9575 25.2002 17.9595H25.1982C25.0029 17.962 24.8115 17.9022 24.6533 17.7876C24.4951 17.673 24.3779 17.5101 24.3193 17.3237V17.3228C24.2824 17.2098 24.2688 17.0905 24.2793 16.9722C24.2899 16.8529 24.3249 16.7367 24.3818 16.6313C24.4387 16.5262 24.5165 16.4339 24.6104 16.3599C24.7042 16.2858 24.8122 16.2316 24.9277 16.2007C25.491 16.0261 26.5552 15.6509 27.6123 15.1558C28.6761 14.6574 29.7144 14.0448 30.2383 13.4038H30.2393C30.4821 13.1099 30.6607 12.7679 30.7637 12.4009C30.8665 12.0339 30.8915 11.6491 30.8369 11.272L30.8359 11.269C30.7895 10.8577 30.6595 10.4599 30.4531 10.1011C30.2468 9.74235 29.9687 9.43009 29.6367 9.18311L29.6348 9.18213L29.6963 9.10205L29.6348 9.18115C29.3192 8.93807 28.9581 8.75963 28.5732 8.65674C28.1886 8.55396 27.7872 8.5284 27.3926 8.58154H27.3916C26.5981 8.68509 25.8764 9.09645 25.3838 9.72705C24.6421 10.7335 24.0804 12.4618 23.7031 13.9575C23.5152 14.7026 23.3743 15.386 23.2803 15.8862C23.2333 16.1363 23.1983 16.3407 23.1748 16.4839C23.1631 16.5555 23.1542 16.6119 23.1484 16.6509C23.1455 16.6703 23.143 16.6855 23.1416 16.6958C23.1409 16.7007 23.1409 16.7043 23.1406 16.7065V16.7085L23.1396 16.7153C23.1227 16.8333 23.0827 16.9471 23.0215 17.0493C22.9603 17.1515 22.8792 17.2405 22.7832 17.311C22.6872 17.3816 22.5777 17.4325 22.4619 17.4604C22.3468 17.4882 22.2273 17.4918 22.1104 17.4731V17.4741C21.9924 17.4572 21.8786 17.4162 21.7764 17.355C21.6742 17.2938 21.5852 17.2126 21.5146 17.1167C21.4442 17.0208 21.3932 16.9121 21.3652 16.7964C21.3373 16.6807 21.3326 16.5603 21.3516 16.4429C21.3688 16.3104 21.5786 14.9682 21.9971 13.3647C22.4176 11.7531 23.0533 9.86056 23.9258 8.67139L23.9482 8.62646L23.9521 8.61768L23.958 8.60986C24.347 8.1058 24.8322 7.68394 25.3848 7.36768C25.9374 7.05141 26.547 6.84715 27.1787 6.76709Z" fill="currentColor" stroke="currentColor" stroke-width="0.2"/>
<path d="M40.8276 40.5298V40.5308C40.947 40.5288 41.0655 40.5496 41.1763 40.5942C41.2877 40.6392 41.3892 40.7065 41.4741 40.7915C41.559 40.8764 41.6265 40.9771 41.6714 41.0884C41.7161 41.1993 41.7378 41.3184 41.7358 41.438C41.7352 41.6786 41.6394 41.9094 41.4692 42.0796C41.3204 42.2285 41.1251 42.3202 40.9175 42.3413L40.8276 42.3462H37.4868V42.3452C37.3673 42.3472 37.2481 42.3265 37.1372 42.2817C37.0259 42.2368 36.9252 42.1693 36.8403 42.0845C36.7554 41.9995 36.688 41.8981 36.6431 41.7866C36.5982 41.6753 36.5764 41.5561 36.5786 41.436C36.5769 41.3172 36.5986 41.1987 36.6431 41.0884C36.688 40.9771 36.7555 40.8764 36.8403 40.7915C36.9252 40.7066 37.0259 40.6392 37.1372 40.5942C37.2481 40.5495 37.3673 40.5288 37.4868 40.5308V40.5298H40.8276Z" fill="currentColor" stroke="currentColor" stroke-width="0.2"/>
<path d="M45.1914 40.5298V40.5308C45.311 40.5288 45.4301 40.5495 45.541 40.5942C45.6523 40.6392 45.753 40.7066 45.8379 40.7915C45.9228 40.8764 45.9902 40.9771 46.0352 41.0884C46.0796 41.1987 46.1013 41.3172 46.0996 41.436C46.1018 41.5561 46.08 41.6753 46.0352 41.7866C45.9902 41.8981 45.9229 41.9995 45.8379 42.0845C45.753 42.1693 45.6523 42.2368 45.541 42.2817C45.4301 42.3265 45.311 42.3472 45.1914 42.3452V42.3462H43.8174V42.3452C43.6978 42.3472 43.5787 42.3265 43.4678 42.2817C43.3565 42.2368 43.2558 42.1693 43.1709 42.0845C43.0859 41.9995 43.0186 41.8981 42.9736 41.7866C42.9288 41.6753 42.907 41.5561 42.9092 41.436C42.9075 41.3171 42.9291 41.1987 42.9736 41.0884C43.0186 40.9771 43.086 40.8764 43.1709 40.7915C43.2558 40.7066 43.3565 40.6392 43.4678 40.5942C43.5787 40.5495 43.6978 40.5288 43.8174 40.5308V40.5298H45.1914Z" fill="currentColor" stroke="currentColor" stroke-width="0.2"/>
</svg>
