<svg width="30" height="30" viewBox="0 0 30 30" fill="none" xmlns="http://www.w3.org/2000/svg">
<path d="M24.1028 10.354V18.8856C24.0955 21.3337 23.1198 23.6794 21.3888 25.4104C19.6577 27.1415 17.312 28.1172 14.8639 28.1245C12.4158 28.1172 10.0701 27.1415 8.33905 25.4104C6.60799 23.6794 5.63226 21.3337 5.625 18.8856V10.354" stroke="currentColor" stroke-width="2.30769" stroke-miterlimit="10" stroke-linecap="round"/>
<path d="M5.71216 10.354H24.016" stroke="currentColor" stroke-width="2.30769" stroke-miterlimit="10" stroke-linecap="round"/>
<path d="M9.57056 10.2945V7.16652C9.57476 5.76428 10.1337 4.4207 11.1252 3.42917C12.1167 2.43763 13.4603 1.87872 14.8626 1.87451C16.2648 1.87872 17.6084 2.43763 18.5999 3.42917C19.5915 4.4207 20.1504 5.76428 20.1546 7.16652V10.2945" stroke="currentColor" stroke-width="2.30769" stroke-miterlimit="10" stroke-linecap="round"/>
<path d="M14.8625 20.2363C16.3643 20.2363 17.5817 19.0188 17.5817 17.5171C17.5817 16.0153 16.3643 14.7979 14.8625 14.7979C13.3607 14.7979 12.1433 16.0153 12.1433 17.5171C12.1433 19.0188 13.3607 20.2363 14.8625 20.2363Z" stroke="currentColor" stroke-width="2.30769" stroke-miterlimit="10" stroke-linecap="round"/>
<path d="M14.8625 23.2765V20.5283" stroke="currentColor" stroke-width="2.30769" stroke-miterlimit="10" stroke-linecap="round"/>
</svg>
