<svg width="33" height="33" viewBox="0 0 33 33" fill="none" xmlns="http://www.w3.org/2000/svg">
<path d="M16.1592 31.1592C24.4435 31.1592 31.1592 24.4435 31.1592 16.1592C31.1592 7.87491 24.4435 1.15918 16.1592 1.15918C7.87491 1.15918 1.15918 7.87491 1.15918 16.1592C1.15918 24.4435 7.87491 31.1592 16.1592 31.1592Z" stroke="currentColor" stroke-width="2.31818" stroke-miterlimit="10" stroke-linecap="round"/>
<path d="M16.5298 31.1592C21.0249 31.1592 24.6689 24.4435 24.6689 16.1592C24.6689 7.87491 21.0249 1.15918 16.5298 1.15918C12.0346 1.15918 8.39062 7.87491 8.39062 16.1592C8.39062 24.4435 12.0346 31.1592 16.5298 31.1592Z" stroke="currentColor" stroke-width="2.31818" stroke-miterlimit="10" stroke-linecap="round"/>
<path d="M1.15918 16.1592H31.1592" stroke="currentColor" stroke-width="2.31818" stroke-miterlimit="10" stroke-linecap="round"/>
<path d="M27.9624 6.79932C20.3222 9.38014 12.0507 9.4119 4.39087 6.88984" stroke="currentColor" stroke-width="2.31818" stroke-miterlimit="10" stroke-linecap="round"/>
<path d="M4.39087 24.898C12.0311 22.3171 20.3024 22.2849 27.9624 24.8063" stroke="currentColor" stroke-width="2.31818" stroke-miterlimit="10" stroke-linecap="round"/>
<path d="M16.4194 1.61523V30.4739" stroke="currentColor" stroke-width="2.31818" stroke-miterlimit="10" stroke-linecap="round"/>
</svg>
