<svg width="32" height="32" viewBox="0 0 32 32" fill="none" xmlns="http://www.w3.org/2000/svg">
<mask id="mask0_1717_65396" style="mask-type:alpha" maskUnits="userSpaceOnUse" x="0" y="0" width="32" height="32">
<rect width="32" height="32" fill="#D9D9D9"/>
</mask>
<g mask="url(#mask0_1717_65396)">
<path d="M13.3333 8.00033C12.5999 8.00033 11.9721 7.73921 11.4499 7.21699C10.9277 6.69477 10.6666 6.06699 10.6666 5.33366C10.6666 4.60033 10.9277 3.97255 11.4499 3.45033C11.9721 2.9281 12.5999 2.66699 13.3333 2.66699C14.0666 2.66699 14.6944 2.9281 15.2166 3.45033C15.7388 3.97255 15.9999 4.60033 15.9999 5.33366C15.9999 6.06699 15.7388 6.69477 15.2166 7.21699C14.6944 7.73921 14.0666 8.00033 13.3333 8.00033ZM21.9999 24.0003C22.9333 24.0003 23.7221 23.6781 24.3666 23.0337C25.011 22.3892 25.3333 21.6003 25.3333 20.667C25.3333 19.7337 25.011 18.9448 24.3666 18.3003C23.7221 17.6559 22.9333 17.3337 21.9999 17.3337C21.0666 17.3337 20.2777 17.6559 19.6333 18.3003C18.9888 18.9448 18.6666 19.7337 18.6666 20.667C18.6666 21.6003 18.9888 22.3892 19.6333 23.0337C20.2777 23.6781 21.0666 24.0003 21.9999 24.0003ZM28.7999 29.3337L25.1999 25.7337C24.711 26.0448 24.1999 26.2781 23.6666 26.4337C23.1333 26.5892 22.5777 26.667 21.9999 26.667C20.3333 26.667 18.9166 26.0837 17.7499 24.917C16.5833 23.7503 15.9999 22.3337 15.9999 20.667C15.9999 19.0003 16.5833 17.5837 17.7499 16.417C18.9166 15.2503 20.3333 14.667 21.9999 14.667C23.6666 14.667 25.0833 15.2503 26.2499 16.417C27.4166 17.5837 27.9999 19.0003 27.9999 20.667C27.9999 21.2448 27.9221 21.8003 27.7666 22.3337C27.611 22.867 27.3777 23.3781 27.0666 23.867L30.6666 27.467L28.7999 29.3337ZM14.6666 29.3337V25.3003C14.9999 25.8337 15.3944 26.3225 15.8499 26.767C16.3055 27.2114 16.7999 27.6114 17.3333 27.967V29.3337H14.6666ZM9.33325 29.3337V12.0003C7.9777 11.8892 6.63325 11.7281 5.29992 11.517C3.96659 11.3059 2.64436 11.0225 1.33325 10.667L1.99992 8.00033C3.86659 8.51144 5.73881 8.86144 7.61659 9.05032C9.49436 9.23921 11.3999 9.33366 13.3333 9.33366C15.2666 9.33366 17.1721 9.23921 19.0499 9.05032C20.9277 8.86144 22.7999 8.51144 24.6666 8.00033L25.3333 10.667C24.0221 11.0225 22.6999 11.3059 21.3666 11.517C20.0333 11.7281 18.6888 11.8892 17.3333 12.0003V13.367C16.1333 14.1448 15.1666 15.1725 14.4333 16.4503C13.6999 17.7281 13.3333 19.1337 13.3333 20.667V21.0003C13.3333 21.1114 13.3444 21.2225 13.3666 21.3337H11.9999V29.3337H9.33325Z" fill="currentColor"/>
</g>
</svg>
