<svg width="48" height="49" viewBox="0 0 48 49" fill="none" xmlns="http://www.w3.org/2000/svg">
<path d="M12.0241 20.0823H40.8862C41.5035 20.0855 42.0948 20.3599 42.5313 20.8458C42.9679 21.3317 43.2144 21.9899 43.2173 22.6771V26.6991C43.2144 27.3862 42.9679 28.0444 42.5313 28.5303C42.0948 29.0162 41.5035 29.2907 40.8862 29.2939H12.0186" stroke="currentColor" stroke-width="2.5" stroke-miterlimit="10" stroke-linecap="round"/>
<path d="M13.2534 20.6644V28.8075" stroke="currentColor" stroke-width="2" stroke-miterlimit="10" stroke-linecap="round"/>
<path d="M17.5918 23.1044V26.4196" stroke="currentColor" stroke-width="2" stroke-miterlimit="10" stroke-linecap="round"/>
<path d="M27.4962 29.2999H41.6687C42.2859 29.3035 42.877 29.578 43.3135 30.0638C43.75 30.5497 43.9968 31.2076 44 31.8947V39.2318C43.9968 39.9189 43.75 40.5768 43.3135 41.0626C42.877 41.5485 42.2859 41.8231 41.6687 41.8267H6.33125C5.71397 41.8231 5.1229 41.5485 4.68641 41.0626C4.24992 40.5768 4.00324 39.9189 4 39.2318V31.8947C4.00324 31.2076 4.24992 30.5497 4.68641 30.0638C5.1229 29.578 5.71397 29.3035 6.33125 29.2999H8.72143" stroke="currentColor" stroke-width="2.5" stroke-miterlimit="10" stroke-linecap="round"/>
<path d="M9.49902 32.4017V38.8872" stroke="currentColor" stroke-width="2" stroke-miterlimit="10" stroke-linecap="round"/>
<path d="M13.1904 32.4017V38.8872" stroke="currentColor" stroke-width="2" stroke-miterlimit="10" stroke-linecap="round"/>
<path d="M36.4956 30.4083V40.8547" stroke="currentColor" stroke-width="2" stroke-miterlimit="10" stroke-linecap="round"/>
<path d="M39.0846 20.0772H9.95231C8.49402 20.0727 7.0966 19.426 6.06544 18.2782C5.03427 17.1305 4.4532 15.5751 4.44922 13.9519C4.4532 12.3288 5.03427 10.7734 6.06544 9.6256C7.0966 8.47785 8.49402 7.83109 9.95231 7.82666H41.6091" stroke="currentColor" stroke-width="2.5" stroke-miterlimit="10" stroke-linecap="round"/>
<path d="M38.438 8.32898V19.7858" stroke="currentColor" stroke-width="2.5" stroke-miterlimit="10" stroke-linecap="round"/>
<path d="M12.6694 13.9545H38.1115" stroke="currentColor" stroke-width="2" stroke-miterlimit="10" stroke-linecap="round"/>
</svg>
