<svg width="30" height="30" viewBox="0 0 30 30" fill="none" xmlns="http://www.w3.org/2000/svg">
<path d="M7.51367 5.5791C7.51453 5.5806 7.51793 5.58586 7.52051 5.5918C7.52318 5.598 7.52734 5.60907 7.52734 5.62305V5.62793C7.53389 5.64317 7.53696 5.65903 7.53613 5.67578H7.53711C7.53721 5.67696 7.53927 5.694 7.5459 5.72656C7.55245 5.75866 7.56315 5.80328 7.58105 5.85742C7.61717 5.96649 7.68096 6.11476 7.79102 6.27832C8.01088 6.60493 8.4185 6.99824 9.16699 7.27441H9.16602C9.23237 7.29643 9.29043 7.33858 9.33105 7.39551C9.37136 7.4521 9.39212 7.52042 9.3916 7.58984L9.38965 7.6416C9.38325 7.69263 9.36407 7.74182 9.33398 7.78418C9.29428 7.83993 9.23719 7.88005 9.17188 7.90039L9.17285 7.90137C7.65887 8.45265 7.54395 9.506 7.54395 9.49121V9.52051L7.5332 9.5293L7.53223 9.53418C7.52741 9.55157 7.51873 9.56738 7.50977 9.58301C7.50872 9.58634 7.50877 9.58959 7.50781 9.5918C7.50586 9.59627 7.50331 9.60017 7.50195 9.60254C7.50153 9.60436 7.50155 9.60658 7.50098 9.6084C7.49954 9.61287 7.49709 9.61649 7.49512 9.62012V9.63184L7.47363 9.65039C7.47737 9.64703 7.48007 9.64295 7.47754 9.64746L7.4541 9.67676L7.43457 9.69336L7.39551 9.72852V9.72949C7.38271 9.74054 7.3692 9.74586 7.36426 9.74805C7.35987 9.75001 7.36248 9.74847 7.36523 9.74609C7.35057 9.75875 7.33267 9.76608 7.31348 9.76855C7.31511 9.76822 7.31682 9.76874 7.31738 9.76855C7.31704 9.7687 7.31642 9.7691 7.31543 9.76953C7.31352 9.77037 7.30752 9.77253 7.30176 9.77441C7.29573 9.77788 7.2914 9.78291 7.28711 9.78418C7.28188 9.7857 7.27625 9.78465 7.27148 9.78516C7.26737 9.78699 7.26411 9.79072 7.25977 9.79199C7.24904 9.7951 7.23768 9.79544 7.22656 9.79492V9.7959H7.125L7.11523 9.78809L7.05566 9.7959V9.77051H7.04492L7.03223 9.75977L7.02246 9.75879L7.00781 9.74609L7.00879 9.74707C7.00393 9.74493 6.99102 9.74025 6.97852 9.72949L6.97754 9.72852L6.96387 9.7168C6.963 9.7163 6.9618 9.71636 6.96094 9.71582C6.94979 9.70871 6.94301 9.69974 6.94043 9.69629C6.93373 9.68732 6.9375 9.69256 6.93945 9.69434L6.93848 9.69336L6.91992 9.67676L6.91895 9.67578C6.90688 9.66483 6.90019 9.65335 6.89746 9.64844L6.87891 9.63281V9.62109C6.87676 9.61728 6.87363 9.61322 6.87207 9.6084C6.87136 9.60619 6.87157 9.60377 6.87109 9.60156C6.86975 9.59915 6.86788 9.59564 6.86621 9.5918C6.86517 9.58937 6.86441 9.58581 6.86328 9.58203C6.84973 9.55828 6.83785 9.53336 6.83105 9.50684L6.8291 9.49902V9.49121C6.82891 9.48898 6.82768 9.47182 6.82129 9.44043C6.81473 9.40827 6.80311 9.36383 6.78516 9.30957C6.74902 9.20043 6.68538 9.05235 6.5752 8.88867C6.35531 8.56209 5.94857 8.16871 5.2002 7.89258H5.19922C5.13681 7.86858 5.08266 7.826 5.04395 7.77148C5.02474 7.74436 5.00952 7.71476 4.99902 7.68359L4.98145 7.58594C4.97859 7.51662 4.99889 7.44816 5.03906 7.3916C5.07854 7.33602 5.13525 7.29493 5.2002 7.27441C5.94887 6.99841 6.35368 6.60309 6.57227 6.27539C6.78952 5.94958 6.82547 5.6877 6.83105 5.66211C6.84284 5.5846 6.88142 5.51369 6.94043 5.46191C7.00043 5.4094 7.07753 5.38054 7.15723 5.37988V5.37891L7.1582 5.37988H7.15918C7.24732 5.37696 7.33412 5.40043 7.4082 5.44824C7.42645 5.45915 7.44207 5.47429 7.45605 5.49023H7.45703L7.46484 5.49805H7.46289C7.46994 5.50574 7.47504 5.51222 7.47754 5.5166L7.48633 5.52344L7.50781 5.54297V5.55859C7.50884 5.56055 7.50968 5.563 7.51074 5.56543C7.51209 5.56855 7.51234 5.57378 7.51367 5.5791ZM7.17773 6.6123C6.89808 7.0173 6.5277 7.34954 6.09473 7.58301C6.52723 7.81613 6.89715 8.14844 7.17676 8.55273C7.4526 8.14475 7.82435 7.8115 8.25977 7.58203C7.82752 7.3485 7.45696 7.0169 7.17773 6.6123Z" fill="currentColor" stroke="currentColor" stroke-width="0.125"/>
<path d="M11.8695 17.2207C11.8695 18.0691 11.6179 18.8986 11.1465 19.6041C10.6752 20.3095 10.0052 20.8594 9.22126 21.1841C8.43736 21.5088 7.57479 21.5938 6.74261 21.4282C5.91043 21.2627 5.14603 20.8541 4.54606 20.2541C3.9461 19.6542 3.53751 18.8898 3.37198 18.0576C3.20645 17.2254 3.29141 16.3628 3.61611 15.5789C3.94081 14.7951 4.49067 14.125 5.19615 13.6537C5.90164 13.1823 6.73107 12.9307 7.57955 12.9307C8.71733 12.9307 9.8085 13.3826 10.613 14.1872C11.4176 14.9917 11.8695 16.0829 11.8695 17.2207Z" stroke="currentColor" stroke-width="1.5625"/>
<path d="M25.9632 10.7088L19.2056 3.95117L12.4479 10.7088L19.2056 17.4664L25.9632 10.7088Z" stroke="currentColor" stroke-width="1.5625" stroke-linecap="round" stroke-linejoin="round"/>
<path d="M23.5225 19.8555C23.5233 19.857 23.5267 19.8622 23.5293 19.8682C23.532 19.8744 23.5361 19.8854 23.5361 19.8994V19.9043C23.5427 19.9195 23.5458 19.9354 23.5449 19.9521H23.5459C23.546 19.9533 23.5481 19.9704 23.5547 20.0029C23.5612 20.035 23.5719 20.0796 23.5898 20.1338C23.626 20.2429 23.6897 20.3911 23.7998 20.5547C24.0197 20.8813 24.4273 21.2746 25.1758 21.5508H25.1748C25.2413 21.5729 25.2992 21.6158 25.3398 21.6729C25.3799 21.7293 25.4009 21.797 25.4004 21.8662L25.3984 21.918C25.3921 21.9691 25.3729 22.0181 25.3428 22.0605C25.3031 22.1163 25.246 22.1564 25.1807 22.1768L25.1816 22.1777C23.6978 22.718 23.5577 23.7407 23.5527 23.7676V23.7969L23.542 23.8057L23.541 23.8105C23.5364 23.8273 23.5271 23.8423 23.5186 23.8574C23.5174 23.8616 23.5177 23.8655 23.5166 23.8682C23.5149 23.8721 23.5121 23.8755 23.5107 23.8779C23.5103 23.8801 23.5105 23.8826 23.5098 23.8848C23.5083 23.8892 23.5059 23.8929 23.5039 23.8965V23.9082L23.4854 23.9238C23.4825 23.9289 23.4753 23.9405 23.4619 23.9521L23.4629 23.9531L23.4434 23.9707L23.4238 23.9873L23.4043 24.0049V24.0059C23.3915 24.017 23.378 24.0222 23.373 24.0244C23.3685 24.0265 23.3713 24.0257 23.374 24.0234C23.3602 24.0353 23.3431 24.042 23.3252 24.0449L23.3242 24.0459C23.3225 24.0466 23.3176 24.048 23.3125 24.0498C23.3057 24.0541 23.3007 24.0591 23.2959 24.0605C23.2907 24.0621 23.2851 24.061 23.2803 24.0615C23.2762 24.0634 23.2729 24.0671 23.2686 24.0684C23.2579 24.0714 23.2464 24.0718 23.2354 24.0713V24.0723H23.1338L23.124 24.0645L23.0635 24.0723V24.0469H23.0537L23.042 24.0361L23.0312 24.0352L23.0166 24.0225C23.0193 24.0248 23.0222 24.0265 23.0176 24.0244C23.013 24.0224 23.0001 24.0168 22.9873 24.0059L22.9863 24.0049L22.9727 23.9932C22.9718 23.9927 22.9706 23.9927 22.9697 23.9922C22.9585 23.9851 22.9518 23.9761 22.9492 23.9727C22.9425 23.9637 22.9463 23.9689 22.9482 23.9707H22.9473L22.9277 23.9531C22.9154 23.942 22.909 23.9297 22.9062 23.9248L22.8877 23.9092V23.8975C22.8856 23.8937 22.8824 23.8896 22.8809 23.8848C22.8803 23.8829 22.8803 23.8808 22.8799 23.8789C22.8785 23.8765 22.8759 23.8725 22.874 23.8682C22.8737 23.8673 22.8734 23.8663 22.873 23.8652C22.8681 23.8578 22.8649 23.8495 22.8623 23.8408L22.8613 23.8418C22.8548 23.8245 22.8483 23.8073 22.8418 23.79L22.8379 23.7793V23.7676C22.8377 23.7654 22.8365 23.7482 22.8301 23.7168C22.8235 23.6846 22.8119 23.6402 22.7939 23.5859C22.7578 23.4768 22.6942 23.3287 22.584 23.165C22.3641 22.8385 21.9574 22.4451 21.209 22.1689H21.208C21.1456 22.1449 21.0915 22.1024 21.0527 22.0479C21.0335 22.0207 21.0183 21.9911 21.0078 21.96L20.9902 21.8623C20.9874 21.793 21.0077 21.7245 21.0479 21.668C21.0873 21.6124 21.144 21.5713 21.209 21.5508C21.9577 21.2748 22.3625 20.8795 22.5811 20.5518C22.7983 20.2259 22.8343 19.9641 22.8398 19.9385C22.8516 19.861 22.8902 19.7901 22.9492 19.7383C23.0092 19.6858 23.0863 19.6569 23.166 19.6562V19.6553L23.167 19.6562H23.168C23.2561 19.6533 23.3429 19.6768 23.417 19.7246C23.4352 19.7355 23.4509 19.7507 23.4648 19.7666H23.4658L23.4736 19.7744H23.4717C23.4787 19.7821 23.4838 19.7886 23.4863 19.793L23.4951 19.7998L23.5166 19.8193V19.835C23.5176 19.8369 23.5185 19.8394 23.5195 19.8418C23.5209 19.8449 23.5211 19.8501 23.5225 19.8555ZM23.1865 20.8887C22.9069 21.2937 22.5365 21.6259 22.1035 21.8594C22.536 22.0925 22.9059 22.4248 23.1855 22.8291C23.4614 22.4211 23.8331 22.0879 24.2686 21.8584C23.8363 21.6249 23.4657 21.2933 23.1865 20.8887Z" fill="currentColor" stroke="currentColor" stroke-width="0.125"/>
<path d="M16.0454 20.4395L19.3222 26.713" stroke="currentColor" stroke-width="1.5625" stroke-miterlimit="10" stroke-linecap="round"/>
<path d="M12.9238 26.713L15.9114 20.4395" stroke="currentColor" stroke-width="1.5625" stroke-miterlimit="10" stroke-linecap="round"/>
<path d="M19.3598 26.875H12.9238" stroke="currentColor" stroke-width="1.5625" stroke-miterlimit="10" stroke-linecap="round"/>
<path d="M6.0957 26.8408H10.6121" stroke="currentColor" stroke-width="1.5625" stroke-miterlimit="10" stroke-linecap="round"/>
<path d="M3.12061 26.8408H4.05407" stroke="currentColor" stroke-width="1.5625" stroke-miterlimit="10" stroke-linecap="round"/>
</svg>
