<svg width="30" height="30" viewBox="0 0 30 30" fill="none" xmlns="http://www.w3.org/2000/svg">
<path d="M7.51517 12.0557H25.554C25.9398 12.0577 26.3093 12.2279 26.5822 12.5295C26.8551 12.831 27.0091 13.2394 27.0109 13.6658V16.1614C27.0091 16.5878 26.8551 16.9962 26.5822 17.2977C26.3093 17.5993 25.9398 17.7695 25.554 17.7715H7.51172" stroke="currentColor" stroke-width="1.5625" stroke-miterlimit="10" stroke-linecap="round"/>
<path d="M8.28345 12.417V17.4698" stroke="currentColor" stroke-width="1.25" stroke-miterlimit="10" stroke-linecap="round"/>
<path d="M10.9949 13.9307V15.9878" stroke="currentColor" stroke-width="1.25" stroke-miterlimit="10" stroke-linecap="round"/>
<path d="M17.1851 17.7754H26.0429C26.4287 17.7776 26.7981 17.9479 27.0709 18.2494C27.3437 18.5509 27.498 18.9591 27.5 19.3854V23.9382C27.498 24.3646 27.3437 24.7728 27.0709 25.0742C26.7981 25.3757 26.4287 25.5461 26.0429 25.5483H3.95703C3.57123 25.5461 3.20181 25.3757 2.92901 25.0742C2.6562 24.7728 2.50203 24.3646 2.5 23.9382V19.3854C2.50203 18.9591 2.6562 18.5509 2.92901 18.2494C3.20181 17.9479 3.57123 17.7776 3.95703 17.7754H5.45089" stroke="currentColor" stroke-width="1.5625" stroke-miterlimit="10" stroke-linecap="round"/>
<path d="M5.93701 19.7002V23.7245" stroke="currentColor" stroke-width="1.25" stroke-miterlimit="10" stroke-linecap="round"/>
<path d="M8.24414 19.7002V23.7245" stroke="currentColor" stroke-width="1.25" stroke-miterlimit="10" stroke-linecap="round"/>
<path d="M22.8098 18.4629V24.9449" stroke="currentColor" stroke-width="1.25" stroke-miterlimit="10" stroke-linecap="round"/>
<path d="M24.4278 12.0527H6.22019C5.30876 12.05 4.43538 11.6486 3.7909 10.9364C3.14642 10.2243 2.78325 9.25912 2.78076 8.25194C2.78325 7.24476 3.14642 6.27962 3.7909 5.56743C4.43538 4.85524 5.30876 4.45392 6.22019 4.45117H26.0057" stroke="currentColor" stroke-width="1.5625" stroke-miterlimit="10" stroke-linecap="round"/>
<path d="M24.0237 4.7627V11.8717" stroke="currentColor" stroke-width="1.5625" stroke-miterlimit="10" stroke-linecap="round"/>
<path d="M7.91846 8.25391H23.8197" stroke="currentColor" stroke-width="1.25" stroke-miterlimit="10" stroke-linecap="round"/>
</svg>
