<svg width="28" height="30" viewBox="0 0 28 30" fill="none" xmlns="http://www.w3.org/2000/svg">
<path opacity="0.78" fill-rule="evenodd" clip-rule="evenodd" d="M12.6312 9.00364C12.6512 8.74315 12.8684 8.54199 13.1297 8.54199H13.5475C13.8044 8.54199 14.0195 8.73664 14.045 8.99224L14.6667 15.2087L19.0814 17.7314C19.2372 17.8204 19.3333 17.9861 19.3333 18.1655V18.554C19.3333 18.8837 19.0199 19.1232 18.7018 19.0364L12.3987 17.3174C12.1673 17.2543 12.0133 17.0358 12.0317 16.7967L12.6312 9.00364Z" fill="currentColor"/>
<path opacity="0.901274" d="M5.85254 0.384766C5.94785 -0.0148349 6.45754 -0.135854 6.72168 0.178711L8.52051 2.32324C10.2036 1.60656 12.0552 1.20801 14 1.20801C21.7319 1.20801 27.9998 7.47618 28 15.208C28 22.94 21.732 29.208 14 29.208C6.26801 29.208 0 22.94 0 15.208C3.22093e-05 13.895 0.180533 12.624 0.518555 11.4189L3.08594 12.1396C2.8086 13.1285 2.66702 14.1575 2.66699 15.208C2.66699 21.4672 7.74077 26.542 14 26.542C20.2592 26.542 25.333 21.4672 25.333 15.208C25.3328 8.94894 20.2591 3.875 14 3.875C12.7318 3.875 11.4968 4.08345 10.332 4.48145L12.1328 6.62793C12.3974 6.9432 12.1892 7.42494 11.7783 7.44824L4.7334 7.84766C4.39924 7.86649 4.14112 7.55801 4.21875 7.23242L5.85254 0.384766Z" fill="currentColor"/>
</svg>
