<svg width="23" height="18" viewBox="0 0 23 18" fill="none" xmlns="http://www.w3.org/2000/svg">
  <path d="M6 4C6 6.20914 7.79086 8 10 8C12.2091 8 14 6.20914 14 4C14 1.79086 12.2091 0 10 0C7.79086 0 6 1.79086 6 4Z" stroke="#8280FF" stroke-width="2"/>
  <path d="M0 18C0 14.6863 2.68629 12 6 12H14C17.3137 12 20 14.6863 20 18" stroke="#8280FF" stroke-width="2"/>
  <path d="M17 4C17 6.20914 18.7909 8 21 8C23.2091 8 25 6.20914 25 4C25 1.79086 23.2091 0 21 0C18.7909 0 17 1.79086 17 4Z" stroke="#8280FF" stroke-width="2"/>
  <path d="M16 18C16 14.6863 18.6863 12 22 12" stroke="#8280FF" stroke-width="2"/>
</svg>
