<svg width="24" height="24" viewBox="0 0 24 24" fill="none" xmlns="http://www.w3.org/2000/svg">
<path d="M12 14.0039C13.1046 14.0039 14 13.1085 14 12.0039C14 10.8993 13.1046 10.0039 12 10.0039C10.8954 10.0039 10 10.8993 10 12.0039C10 13.1085 10.8954 14.0039 12 14.0039Z" fill="currentColor"/>
<path d="M12 7C13.1046 7 14 6.10457 14 5C14 3.89543 13.1046 3 12 3C10.8954 3 10 3.89543 10 5C10 6.10457 10.8954 7 12 7Z" fill="currentColor"/>
<path d="M12 20.9961C13.1046 20.9961 14 20.1007 14 18.9961C14 17.8915 13.1046 16.9961 12 16.9961C10.8954 16.9961 10 17.8915 10 18.9961C10 20.1007 10.8954 20.9961 12 20.9961Z" fill="currentColor"/>
</svg>
