<svg width="30" height="30" viewBox="0 0 30 30" fill="none" xmlns="http://www.w3.org/2000/svg">
<mask id="mask0_1663_38268" style="mask-type:alpha" maskUnits="userSpaceOnUse" x="0" y="0" width="30" height="30">
<rect width="30" height="30" fill="#0CD97D"/>
</mask>
<g mask="url(#mask0_1663_38268)">
<path d="M9.375 20.625L18.125 18.125L20.625 9.375L11.875 11.875L9.375 20.625ZM15 16.875C14.4792 16.875 14.0365 16.6927 13.6719 16.3281C13.3073 15.9635 13.125 15.5208 13.125 15C13.125 14.4792 13.3073 14.0365 13.6719 13.6719C14.0365 13.3073 14.4792 13.125 15 13.125C15.5208 13.125 15.9635 13.3073 16.3281 13.6719C16.6927 14.0365 16.875 14.4792 16.875 15C16.875 15.5208 16.6927 15.9635 16.3281 16.3281C15.9635 16.6927 15.5208 16.875 15 16.875ZM15 27.5C13.2708 27.5 11.6458 27.1719 10.125 26.5156C8.60417 25.8594 7.28125 24.9688 6.15625 23.8438C5.03125 22.7188 4.14063 21.3958 3.48438 19.875C2.82812 18.3542 2.5 16.7292 2.5 15C2.5 13.2708 2.82812 11.6458 3.48438 10.125C4.14063 8.60417 5.03125  7.28125 6.15625 6.15625C7.28125 5.03125 8.60417 4.14063 10.125 3.48438C11.6458 2.82812 13.2708 2.5 15 2.5C16.7292 2.5 18.3542 2.82812 19.875 3.48438C21.3958 4.14063 22.7188 5.03125 23.8438 6.15625C24.9688 7.28125 25.8594 8.60417 26.5156 10.125C27.1719 11.6458 27.5 13.2708 27.5 15C27.5 16.7292 27.1719 18.3542 26.5156 19.875C25.8594 21.3958 24.9688 22.7188 23.8438 23.8438C22.7188 24.9688 21.3958 25.8594 19.875 26.5156C18.3542 27.1719 16.7292 27.5 15 27.5ZM15 25C17.7708 25 20.1302 24.026 22.0781 22.0781C24.026 20.1302 25 17.7708 25 15C25 12.2292 24.026 9.86979 22.0781 7.92188C20.1302 5.97396 17.7708 5 15 5C12.2292 5 9.86979 5.97396 7.92188 7.92188C5.97396 9.86979 5 12.2292 5 15C5 17.7708 5.97396 20.1302 7.92188 22.0781C9.86979 24.026 12.2292 25 15 25Z" fill="currentColor"/>
</g>
</svg>
