<svg width="48" height="49" viewBox="0 0 48 49" fill="none" xmlns="http://www.w3.org/2000/svg">
<path d="M33.2686 42.5774C33.2686 42.5774 15.0626 27.9604 15.5268 15.3476C15.5118 14.1153 15.7352 12.8924 16.1839 11.751C16.6325 10.6095 17.2972 9.57267 18.1389 8.70155C18.9806 7.83043 19.9822 7.14269 21.0846 6.67885C22.187 6.215 23.3679 5.98445 24.5577 6.00081C26.6105 5.99761 28.6026 6.72204 30.2029 8.0537C30.2029 8.0537 36.0191 12.5265 32.0957 21.5988C31.0323 24.081 29.4299 26.2753 27.4132 28.0107" stroke="currentColor" stroke-width="2.5" stroke-miterlimit="10" stroke-linecap="round"/>
<path d="M20.1507 35.4185C17.9039 38.4802 15.1147 41.0708 11.9321 43.0518" stroke="currentColor" stroke-width="2.5" stroke-miterlimit="10" stroke-linecap="round"/>
<path d="M45.7585 43.2922C45.7585 43.2922 44.8176 37.3934 40.4378 38.3305C38.6533 38.7122 37.91 40.6611 34.8804 40.9291" stroke="currentColor" stroke-width="2.5" stroke-miterlimit="10" stroke-linecap="round"/>
<path d="M32.2867 41.9238L31.5293 43.2978" stroke="currentColor" stroke-width="2.208" stroke-miterlimit="10" stroke-linecap="round"/>
<path d="M25.6414 43.1517C25.6414 43.1517 25.5198 41.4825 24.6342 40.3136C23.3573 38.6279 20.7814 39.5623 18.9628 40.6416C18.9288 40.6618 18.8948 40.6821 18.8608 40.7025" stroke="currentColor" stroke-width="2.5" stroke-miterlimit="10" stroke-linecap="round"/>
<path d="M31.5293 43.297H45.5013" stroke="currentColor" stroke-width="2.5" stroke-miterlimit="10" stroke-linecap="round"/>
<path d="M25.635 43.1556H11.7539" stroke="currentColor" stroke-width="2.5" stroke-miterlimit="10" stroke-linecap="round"/>
<path d="M24.881 20.5728C27.2445 20.5728 29.1604 18.5884 29.1604 16.1406C29.1604 13.6927 27.2445 11.7084 24.881 11.7084C22.5175 11.7084 20.6016 13.6927 20.6016 16.1406C20.6016 18.5884 22.5175 20.5728 24.881 20.5728Z" stroke="currentColor" stroke-width="2.5" stroke-miterlimit="10" stroke-linecap="round"/>
<path d="M1.57959 43.2999H8.48877" stroke="currentColor" stroke-width="2.5" stroke-miterlimit="10" stroke-linecap="round"/>
</svg>
