<svg width="30" height="30" viewBox="0 0 30 30" fill="none" xmlns="http://www.w3.org/2000/svg">
<mask id="mask0_1717_59238" style="mask-type:alpha" maskUnits="userSpaceOnUse" x="0" y="0" width="30" height="30">
<rect width="30" height="30" fill="#D9D9D9"/>
</mask>
<g mask="url(#mask0_1717_59238)">
<path d="M13.7499 25C13.3957 25 13.0988 24.8802 12.8592 24.6406C12.6196 24.401 12.4999 24.1042 12.4999 23.75V16.25L5.24986 7C4.93736 6.58333 4.89048 6.14583 5.10923 5.6875C5.32798 5.22917 5.70819 5 6.24986 5H23.7499C24.2915 5 24.6717 5.22917 24.8905 5.6875C25.1092 6.14583 25.0624 6.58333 24.7499 7L17.4999 16.25V23.75C17.4999 24.1042 17.3801 24.401 17.1405 24.6406C16.9009 24.8802 16.604 25 16.2499 25H13.7499ZM14.9999 15.375L21.1874 7.5H8.81236L14.9999 15.375Z" fill="currentColor"/>
</g>
</svg>
