<svg width="33" height="33" viewBox="0 0 33 33" fill="none" xmlns="http://www.w3.org/2000/svg">
<path fill-rule="evenodd" clip-rule="evenodd" d="M21.5957 13.9281L13.5483 21.9755L12.0898 20.5171L20.1372 12.4697L21.5957 13.9281Z" fill="currentColor"/>
<path fill-rule="evenodd" clip-rule="evenodd" d="M13.5435 12.4667L21.5963 20.5211L20.1377 21.9794L12.085 13.9249L13.5435 12.4667Z" fill="currentColor"/>
<path fill-rule="evenodd" clip-rule="evenodd" d="M3.09375 17.2352C3.09375 9.64125 9.24983 3.48517 16.8438 3.48517C24.4376 3.48517 30.5938 9.64125 30.5938 17.2352C30.5938 24.8291 24.4376 30.9852 16.8438 30.9852C9.24983 30.9852 3.09375 24.8291 3.09375 17.2352ZM16.8438 5.54767C10.3889 5.54767 5.15625 10.7803 5.15625 17.2352C5.15625 23.69 10.3889 28.9227 16.8438 28.9227C23.2985 28.9227 28.5312 23.69 28.5312 17.2352C28.5312 10.7803 23.2985 5.54767 16.8438 5.54767Z" fill="currentColor"/>
</svg>
