<svg width="110" height="42" viewBox="0 0 110 42" fill="none" xmlns="http://www.w3.org/2000/svg">
<path d="M44.9851 34.371H47.7683C48.6639 33.6549 49.4301 32.9755 50.0424 32.4002L40.6861 12.7927H38.231L28.1138 33.7988V34.3714H33.9005L35.1688 31.6755H43.6858L44.9851 34.371ZM36.8945 27.2625L39.4279 21.4502L41.9955 27.2634L36.8945 27.2625Z" fill="#EF9045"/>
<path d="M27.7718 13.0276L25.1539 18.5892L22.4084 24.5764H22.0646L18.0517 13.3813H15.349L11.336 24.5764H10.9923L8.2463 18.5892L5.62888 13.0276H0V13.67L9.85174 34.588H12.6996L16.5363 24.6723H16.8639L20.7006 34.588H23.5485L33.4002 13.67V13.0276H27.7718Z" fill="#EF9045"/>
<path d="M83.5834 24.0901L83.5126 23.9824L83.6001 23.8877C84.7126 22.6889 85.1412 21.5145 86.6111 19.1312C87.1528 18.2363 87.9611 17.5324 88.9232 17.1177L86.6207 13.0995C85.6703 13.3527 84.7812 13.7952 84.007 14.4005C83.2328 15.0057 82.5896 15.7611 82.1162 16.621C80.5785 19.286 80.2676 20.6174 79.1948 21.142C78.4562 21.5171 77.1621 21.5079 76.214 21.5014H75.7224V13.0105H70.251V34.372H75.722V26.097H75.8869C76.8 26.1142 77.7133 26.0837 78.6232 26.0054L78.733 25.9897L78.789 26.0861L83.5926 34.372H89.8954V33.7501C88.6512 31.8897 87.4188 29.9896 86.2275 28.1519C85.3505 26.7953 84.4692 25.4414 83.5834 24.0901Z" fill="#EF9045"/>
<path d="M110 13.0098H104.11L100.083 20.1989H99.6356L95.607 13.0098H89.6558V13.6373L97.1079 25.9079V34.3726H102.58V25.907L102.604 25.8678L110 13.6373V13.0098Z" fill="#EF9045"/>
<path d="M67.3967 41.6829C67.0307 41.6832 66.675 41.5616 66.3861 41.3375C65.5486 40.6895 45.8788 25.3113 46.411 11.3988C46.655 5.00687 51.7027 0 57.9036 0C60.9511 0.00300104 63.8729 1.21142 66.028 3.3601C68.1831 5.50879 69.3954 8.42223 69.3988 11.4612C69.3988 18.5094 64.3223 23.9437 62.1391 25.9524C61.9803 26.1017 61.7933 26.2182 61.589 26.295C61.3847 26.3718 61.1672 26.4075 60.949 26.4C60.7308 26.3924 60.5163 26.3418 60.3178 26.251C60.1194 26.1602 59.9409 26.0311 59.7928 25.8712C59.6447 25.7112 59.5299 25.5235 59.4551 25.319C59.3802 25.1145 59.3467 24.8972 59.3566 24.6797C59.3665 24.4622 59.4195 24.2488 59.5127 24.0519C59.6058 23.8549 59.7372 23.6784 59.8991 23.5324C61.3528 22.194 66.0961 17.3694 66.0961 11.4612C66.0936 9.29564 65.2297 7.21956 63.6941 5.68835C62.1585 4.15714 60.0765 3.29586 57.9049 3.29343C53.4879 3.29343 49.8891 6.9087 49.7128 11.524C49.2458 23.7492 68.2207 38.5866 68.4122 38.7366C68.6843 38.9472 68.8835 39.2373 68.982 39.5663C69.0806 39.8954 69.0735 40.2469 68.9618 40.5717C68.8501 40.8966 68.6393 41.1784 68.359 41.3779C68.0787 41.5774 67.7429 41.6845 67.3985 41.6842L67.3967 41.6829Z" fill="white"/>
<path d="M58.0974 16.4142C60.6516 16.4142 62.7222 14.3494 62.7222 11.8024C62.7222 9.25543 60.6516 7.19067 58.0974 7.19067C55.5432 7.19067 53.4727 9.25543 53.4727 11.8024C53.4727 14.3494 55.5432 16.4142 58.0974 16.4142Z" fill="white"/>
<path d="M44.3342 41.8859C43.9711 41.8859 43.6182 41.7665 43.3299 41.5464C43.0417 41.3262 42.8343 41.0175 42.7397 40.6679C42.6451 40.3184 42.6686 39.9475 42.8066 39.6126C42.9447 39.2777 43.1895 38.9975 43.5033 38.8153C46.6467 36.9911 49.4929 34.6996 51.9437 32.02C52.2283 31.6927 52.6307 31.4903 53.0638 31.4568C53.4969 31.4233 53.9259 31.5614 54.2576 31.841C54.5894 32.1207 54.7973 32.5195 54.8362 32.9509C54.8752 33.3824 54.7421 33.8117 54.4658 34.146C51.7782 37.1207 48.64 39.6573 45.1651 41.6635C44.9129 41.8099 44.626 41.8867 44.3342 41.8859Z" fill="white"/>
<path d="M73.1342 36.7021C70.8277 37.1766 70.1323 39.9877 64.8949 39.3353L63.5168 41.8646H78.8838C78.8838 41.8646 77.8696 35.7274 73.1342 36.7021Z" fill="white"/>
<path d="M51.9823 37.9519C50.7411 38.159 49.3054 39.5812 47.4931 39.8271C46.2419 39.9972 45.0235 39.9824 42.6606 39.5807L41.3145 41.9998H56.112C56.112 41.9998 55.7577 37.3221 51.9823 37.9519Z" fill="white"/>
</svg>
